  0
SECTION
  2
HEADER
  9
$ACADVER
  1
AC1009
  9
$DWGCODEPAGE
  3
ansi_1252
  9
$INSBASE
 10
0.0
 20
0.0
 30
0.0
  9
$EXTMIN
 10
79.24486559413874
 20
9.1438
 30
0.0
  9
$EXTMAX
 10
141.1396905941388
 20
57.14319999999999
 30
0.0
  9
$LIMMIN
 10
0.0
 20
0.0
  9
$LIMMAX
 10
12.0
 20
9.0
  9
$ORTHOMODE
 70
     0
  9
$REGENMODE
 70
     1
  9
$FILLMODE
 70
     1
  9
$QTEXTMODE
 70
     0
  9
$MIRRTEXT
 70
     1
  9
$DRAGMODE
 70
     2
  9
$LTSCALE
 40
1.0
  9
$OSMODE
 70
    37
  9
$ATTMODE
 70
     1
  9
$TEXTSIZE
 40
0.2
  9
$TRACEWID
 40
0.05
  9
$TEXTSTYLE
  7
STANDARD
  9
$CLAYER
  8
16
  9
$CELTYPE
  6
BYLAYER
  9
$CECOLOR
 62
   256
  9
$DIMSCALE
 40
1.0
  9
$DIMASZ
 40
0.18
  9
$DIMEXO
 40
0.0625
  9
$DIMDLI
 40
0.38
  9
$DIMRND
 40
0.0
  9
$DIMDLE
 40
0.0
  9
$DIMEXE
 40
0.18
  9
$DIMTP
 40
0.0
  9
$DIMTM
 40
0.0
  9
$DIMTXT
 40
0.18
  9
$DIMCEN
 40
0.09
  9
$DIMTSZ
 40
0.0
  9
$DIMTOL
 70
     0
  9
$DIMLIM
 70
     0
  9
$DIMTIH
 70
     1
  9
$DIMTOH
 70
     1
  9
$DIMSE1
 70
     0
  9
$DIMSE2
 70
     0
  9
$DIMTAD
 70
     0
  9
$DIMZIN
 70
     0
  9
$DIMBLK
  1

  9
$DIMASO
 70
     1
  9
$DIMSHO
 70
     1
  9
$DIMPOST
  1

  9
$DIMAPOST
  1

  9
$DIMALT
 70
     0
  9
$DIMALTD
 70
     2
  9
$DIMALTF
 40
25.4
  9
$DIMLFAC
 40
1.0
  9
$DIMTOFL
 70
     0
  9
$DIMTVP
 40
0.0
  9
$DIMTIX
 70
     0
  9
$DIMSOXD
 70
     0
  9
$DIMSAH
 70
     0
  9
$DIMBLK1
  1

  9
$DIMBLK2
  1

  9
$DIMSTYLE
  2
STANDARD
  9
$DIMCLRD
 70
     0
  9
$DIMCLRE
 70
     0
  9
$DIMCLRT
 70
     0
  9
$DIMTFAC
 40
1.0
  9
$DIMGAP
 40
0.09
  9
$LUNITS
 70
     2
  9
$LUPREC
 70
     3
  9
$SKETCHINC
 40
0.1
  9
$FILLETRAD
 40
0.5
  9
$AUNITS
 70
     0
  9
$AUPREC
 70
     0
  9
$MENU
  1
.
  9
$ELEVATION
 40
0.0
  9
$PELEVATION
 40
0.0
  9
$THICKNESS
 40
0.0
  9
$LIMCHECK
 70
     0
  9
$CHAMFERA
 40
0.0
  9
$CHAMFERB
 40
0.0
  9
$SKPOLY
 70
     0
  9
$TDCREATE
 40
2458320.59240353
  9
$TDUPDATE
 40
2458320.592415405
  9
$TDINDWG
 40
0.0000000116
  9
$TDUSRTIMER
 40
0.0000000116
  9
$USRTIMER
 70
     1
  9
$ANGBASE
 50
0.0
  9
$ANGDIR
 70
     0
  9
$PDMODE
 70
     0
  9
$PDSIZE
 40
0.0
  9
$PLINEWID
 40
0.0
  9
$COORDS
 70
     1
  9
$SPLFRAME
 70
     0
  9
$SPLINETYPE
 70
     6
  9
$SPLINESEGS
 70
     8
  9
$ATTDIA
 70
     0
  9
$ATTREQ
 70
     1
  9
$HANDLING
 70
     1
  9
$HANDSEED
  5
216
  9
$SURFTAB1
 70
     6
  9
$SURFTAB2
 70
     6
  9
$SURFTYPE
 70
     6
  9
$SURFU
 70
     6
  9
$SURFV
 70
     6
  9
$UCSNAME
  2

  9
$UCSORG
 10
0.0
 20
0.0
 30
0.0
  9
$UCSXDIR
 10
1.0
 20
0.0
 30
0.0
  9
$UCSYDIR
 10
0.0
 20
1.0
 30
0.0
  9
$PUCSNAME
  2

  9
$PUCSORG
 10
0.0
 20
0.0
 30
0.0
  9
$PUCSXDIR
 10
1.0
 20
0.0
 30
0.0
  9
$PUCSYDIR
 10
0.0
 20
1.0
 30
0.0
  9
$USERI1
 70
     0
  9
$USERI2
 70
     0
  9
$USERI3
 70
     0
  9
$USERI4
 70
     0
  9
$USERI5
 70
     0
  9
$USERR1
 40
0.0
  9
$USERR2
 40
0.0
  9
$USERR3
 40
0.0
  9
$USERR4
 40
0.0
  9
$USERR5
 40
0.0
  9
$WORLDVIEW
 70
     1
  9
$SHADEDGE
 70
     3
  9
$SHADEDIF
 70
    70
  9
$TILEMODE
 70
     1
  9
$MAXACTVP
 70
    64
  9
$PLIMCHECK
 70
     0
  9
$PEXTMIN
 10
1.000000000000000E+20
 20
1.000000000000000E+20
 30
1.000000000000000E+20
  9
$PEXTMAX
 10
-1.000000000000000E+20
 20
-1.000000000000000E+20
 30
-1.000000000000000E+20
  9
$PLIMMIN
 10
0.0
 20
0.0
  9
$PLIMMAX
 10
12.0
 20
9.0
  9
$UNITMODE
 70
     0
  9
$VISRETAIN
 70
     1
  9
$PLINEGEN
 70
     0
  9
$PSLTSCALE
 70
     1
  0
ENDSEC
  0
SECTION
  2
TABLES
  0
TABLE
  2
VPORT
 70
     1
  0
VPORT
  2
*ACTIVE
 70
     0
 10
0.0
 20
0.0
 11
1.0
 21
1.0
 12
110.1922780941387
 22
33.1435
 13
0.0
 23
0.0
 14
0.5
 24
0.5
 15
0.5
 25
0.5
 16
0.0
 26
0.0
 36
1.0
 17
0.0
 27
0.0
 37
0.0
 40
48.959388
 41
1.289491639478828
 42
50.0
 43
0.0
 44
0.0
 50
0.0
 51
0.0
 71
     0
 72
   100
 73
     1
 74
     3
 75
     0
 76
     0
 77
     0
 78
     0
  0
ENDTAB
  0
TABLE
  2
LTYPE
 70
     1
  0
LTYPE
  2
CONTINUOUS
 70
     0
  3
Solid line
 72
    65
 73
     0
 40
0.0
  0
ENDTAB
  0
TABLE
  2
LAYER
 70
     4
  0
LAYER
  2
0
 70
     0
 62
     7
  6
CONTINUOUS
  0
LAYER
  2
20
 70
     0
 62
    30
  6
CONTINUOUS
  0
LAYER
  2
44
 70
     0
 62
     4
  6
CONTINUOUS
  0
LAYER
  2
16
 70
     0
 62
     5
  6
CONTINUOUS
  0
ENDTAB
  0
TABLE
  2
STYLE
 70
     1
  0
STYLE
  2
STANDARD
 70
     0
 40
0.0
 41
1.0
 50
0.0
 71
     0
 42
0.2
  3
txt
  4

  0
ENDTAB
  0
TABLE
  2
VIEW
 70
     0
  0
ENDTAB
  0
TABLE
  2
UCS
 70
     0
  0
ENDTAB
  0
TABLE
  2
APPID
 70
     1
  0
APPID
  2
ACAD
 70
     0
  0
ENDTAB
  0
TABLE
  2
DIMSTYLE
 70
     1
  0
DIMSTYLE
  2
STANDARD
 70
     0
  3

  4

  5

  6

  7

 40
1.0
 41
0.18
 42
0.0625
 43
0.38
 44
0.18
 45
0.0
 46
0.0
 47
0.0
 48
0.0
140
0.18
141
0.09
142
0.0
143
25.4
144
1.0
145
0.0
146
1.0
147
0.09
 71
     0
 72
     0
 73
     1
 74
     1
 75
     0
 76
     0
 77
     0
 78
     0
170
     0
171
     2
172
     0
173
     0
174
     0
175
     0
176
     0
177
     0
178
     0
  0
ENDTAB
  0
ENDSEC
  0
SECTION
  2
BLOCKS
  0
BLOCK
  8
0
  2
$MODEL_SPACE
 70
     0
 10
0.0
 20
0.0
 30
0.0
  3
$MODEL_SPACE
  1

  0
ENDBLK
  5
21
  8
0
  0
BLOCK
 67
     1
  8
0
  2
$PAPER_SPACE
 70
     0
 10
0.0
 20
0.0
 30
0.0
  3
$PAPER_SPACE
  1

  0
ENDBLK
  5
1D
 67
     1
  8
0
  0
ENDSEC
  0
SECTION
  2
ENTITIES
  0
CIRCLE
  5
6B
  8
20
 10
82.84491559413873
 20
53.5434
 30
0.0
 40
1.599500000000006
  0
CIRCLE
  5
6C
  8
20
 10
137.5402155941387
 20
53.54340000000003
 30
0.0
 40
1.599500000000006
  0
CIRCLE
  5
6D
  8
20
 10
137.5402155941387
 20
12.74340000000002
 30
0.0
 40
1.599500000000006
  0
CIRCLE
  5
6E
  8
20
 10
82.84491559413871
 20
12.7434
 30
0.0
 40
1.599499999999992
  0
POLYLINE
  5
6F
  8
20
 66
     1
 10
0.0
 20
0.0
 30
0.0
  0
VERTEX
  5
70
  8
20
 10
141.1396655937853
 20
55.14335000035351
 30
0.0
  0
VERTEX
  5
71
  8
20
 10
141.1396905941388
 20
11.14342500000001
 30
0.0
  0
VERTEX
  5
72
  8
20
 10
139.1401905941387
 20
9.143925000000003
 30
0.0
  0
VERTEX
  5
73
  8
20
 10
81.24531559413873
 20
9.1438
 30
0.0
  0
VERTEX
  5
74
  8
20
 10
79.24509059413874
 20
11.143075
 30
0.0
  0
VERTEX
  5
75
  8
20
 10
79.24486559413874
 20
55.143
 30
0.0
  0
VERTEX
  5
76
  8
20
 10
81.24461559413874
 20
57.14319999999999
 30
0.0
  0
VERTEX
  5
77
  8
20
 10
139.1399155941387
 20
57.14295000000001
 30
0.0
  0
VERTEX
  5
78
  8
20
 10
141.1396655937853
 20
55.14335000035351
 30
0.0
  0
SEQEND
  5
79
  8
20
  0
CIRCLE
  5
7B
  8
44
 10
-90.83781559413873
 20
13.97
 30
0.0
 40
0.6
210
0.0
220
0.0
230
-1.0
  0
CIRCLE
  5
7C
  8
44
 10
-94.69341559413873
 20
13.97
 30
0.0
 40
0.6
210
0.0
220
0.0
230
-1.0
  0
CIRCLE
  5
7D
  8
44
 10
-125.3056155941387
 20
13.97
 30
0.0
 40
0.5588
210
0.0
220
0.0
230
-1.0
  0
CIRCLE
  5
7E
  8
44
 10
-127.8456155941387
 20
13.97
 30
0.0
 40
0.5588
210
0.0
220
0.0
230
-1.0
  0
CIRCLE
  5
7F
  8
44
 10
-130.3856155941387
 20
13.97
 30
0.0
 40
0.5588
210
0.0
220
0.0
230
-1.0
  0
CIRCLE
  5
80
  8
44
 10
-89.56781559413872
 20
52.07
 30
0.0
 40
0.6
210
0.0
220
0.0
230
-1.0
  0
CIRCLE
  5
81
  8
44
 10
-93.42341559413873
 20
52.07
 30
0.0
 40
0.6
210
0.0
220
0.0
230
-1.0
  0
CIRCLE
  5
82
  8
44
 10
-112.4278155941387
 20
53.34
 30
0.0
 40
0.6
210
0.0
220
0.0
230
-1.0
  0
CIRCLE
  5
83
  8
44
 10
-116.2834155941387
 20
53.34
 30
0.0
 40
0.6
210
0.0
220
0.0
230
-1.0
  0
CIRCLE
  5
84
  8
44
 10
-116.5934155941387
 20
17.145
 30
0.0
 40
0.6
210
0.0
220
0.0
230
-1.0
  0
CIRCLE
  5
85
  8
44
 10
-112.7378155941387
 20
17.145
 30
0.0
 40
0.6
210
0.0
220
0.0
230
-1.0
  0
CIRCLE
  5
86
  8
44
 10
-89.74561559413873
 20
31.75
 30
0.0
 40
0.508
210
0.0
220
0.0
230
-1.0
  0
CIRCLE
  5
87
  8
44
 10
-89.74561559413873
 20
34.29
 30
0.0
 40
0.508
210
0.0
220
0.0
230
-1.0
  0
CIRCLE
  5
88
  8
44
 10
-89.74561559413873
 20
29.21
 30
0.0
 40
0.508
210
0.0
220
0.0
230
-1.0
  0
CIRCLE
  5
89
  8
44
 10
-131.6556155941387
 20
30.48
 30
0.0
 40
0.4
210
0.0
220
0.0
230
-1.0
  0
CIRCLE
  5
8A
  8
44
 10
-106.2556155941387
 20
30.48
 30
0.0
 40
0.4
210
0.0
220
0.0
230
-1.0
  0
CIRCLE
  5
8B
  8
44
 10
-126.5756155941387
 20
30.48
 30
0.0
 40
0.4
210
0.0
220
0.0
230
-1.0
  0
CIRCLE
  5
8C
  8
44
 10
-124.0356155941387
 20
30.48
 30
0.0
 40
0.4
210
0.0
220
0.0
230
-1.0
  0
CIRCLE
  5
8D
  8
44
 10
-121.4956155941387
 20
30.48
 30
0.0
 40
0.4
210
0.0
220
0.0
230
-1.0
  0
CIRCLE
  5
8E
  8
44
 10
-118.9556155941387
 20
30.48
 30
0.0
 40
0.4
210
0.0
220
0.0
230
-1.0
  0
CIRCLE
  5
8F
  8
44
 10
-116.4156155941387
 20
30.48
 30
0.0
 40
0.4
210
0.0
220
0.0
230
-1.0
  0
CIRCLE
  5
90
  8
44
 10
-113.8756155941387
 20
30.48
 30
0.0
 40
0.4
210
0.0
220
0.0
230
-1.0
  0
CIRCLE
  5
91
  8
44
 10
-111.3356155941387
 20
30.48
 30
0.0
 40
0.4
210
0.0
220
0.0
230
-1.0
  0
CIRCLE
  5
92
  8
44
 10
-108.7956155941387
 20
30.48
 30
0.0
 40
0.4
210
0.0
220
0.0
230
-1.0
  0
CIRCLE
  5
93
  8
44
 10
-129.1156155941387
 20
30.48
 30
0.0
 40
0.4
210
0.0
220
0.0
230
-1.0
  0
CIRCLE
  5
94
  8
44
 10
-108.7956155941387
 20
45.72
 30
0.0
 40
0.4
210
0.0
220
0.0
230
-1.0
  0
CIRCLE
  5
95
  8
44
 10
-111.3356155941387
 20
45.72
 30
0.0
 40
0.4
210
0.0
220
0.0
230
-1.0
  0
CIRCLE
  5
96
  8
44
 10
-113.8756155941387
 20
45.72
 30
0.0
 40
0.4
210
0.0
220
0.0
230
-1.0
  0
CIRCLE
  5
97
  8
44
 10
-116.4156155941387
 20
45.72
 30
0.0
 40
0.4
210
0.0
220
0.0
230
-1.0
  0
CIRCLE
  5
98
  8
44
 10
-118.9556155941387
 20
45.72
 30
0.0
 40
0.4
210
0.0
220
0.0
230
-1.0
  0
CIRCLE
  5
99
  8
44
 10
-121.4956155941387
 20
45.72
 30
0.0
 40
0.4
210
0.0
220
0.0
230
-1.0
  0
CIRCLE
  5
9A
  8
44
 10
-124.0356155941387
 20
45.72
 30
0.0
 40
0.4
210
0.0
220
0.0
230
-1.0
  0
CIRCLE
  5
9B
  8
44
 10
-126.5756155941387
 20
45.72
 30
0.0
 40
0.4
210
0.0
220
0.0
230
-1.0
  0
CIRCLE
  5
9C
  8
44
 10
-129.1156155941387
 20
45.72
 30
0.0
 40
0.4
210
0.0
220
0.0
230
-1.0
  0
CIRCLE
  5
9D
  8
44
 10
-131.6556155941387
 20
45.72
 30
0.0
 40
0.4
210
0.0
220
0.0
230
-1.0
  0
CIRCLE
  5
9E
  8
44
 10
-134.1956155941387
 20
45.72
 30
0.0
 40
0.4
210
0.0
220
0.0
230
-1.0
  0
CIRCLE
  5
9F
  8
44
 10
-134.1956155941387
 20
30.48
 30
0.0
 40
0.4
210
0.0
220
0.0
230
-1.0
  0
CIRCLE
  5
A0
  8
44
 10
-101.1756155941387
 20
30.48
 30
0.0
 40
0.4
210
0.0
220
0.0
230
-1.0
  0
CIRCLE
  5
A1
  8
44
 10
-106.2556155941387
 20
45.72
 30
0.0
 40
0.4
210
0.0
220
0.0
230
-1.0
  0
CIRCLE
  5
A2
  8
44
 10
-98.63561559413873
 20
30.48
 30
0.0
 40
0.4
210
0.0
220
0.0
230
-1.0
  0
CIRCLE
  5
A3
  8
44
 10
-103.7156155941387
 20
30.48
 30
0.0
 40
0.4
210
0.0
220
0.0
230
-1.0
  0
CIRCLE
  5
A4
  8
44
 10
-103.7156155941387
 20
45.72
 30
0.0
 40
0.4
210
0.0
220
0.0
230
-1.0
  0
CIRCLE
  5
A5
  8
44
 10
-101.1756155941387
 20
45.72
 30
0.0
 40
0.4
210
0.0
220
0.0
230
-1.0
  0
CIRCLE
  5
A6
  8
44
 10
-98.63561559413873
 20
45.72
 30
0.0
 40
0.4
210
0.0
220
0.0
230
-1.0
  0
POLYLINE
  5
A8
  8
16
 66
     1
 10
0.0
 20
0.0
 30
0.0
  0
VERTEX
  5
A9
  8
16
 10
107.6456155941388
 20
46.37400019387797
 30
0.0
 42
-0.9999998992042908
  0
VERTEX
  5
AA
  8
16
 10
109.9456155941387
 20
46.37400003795223
 30
0.0
  0
VERTEX
  5
AB
  8
16
 10
109.9456155941387
 20
45.06600019389283
 30
0.0
 42
-0.2515710607721219
  0
VERTEX
  5
AC
  8
16
 10
109.4306155941387
 20
44.10721170219906
 30
0.0
  0
VERTEX
  5
AD
  8
16
 10
109.4306155941387
 20
41.91
 30
0.0
 42
-0.2008759562273097
  0
VERTEX
  5
AE
  8
16
 10
109.2412244256202
 20
41.45760883153438
 30
0.0
  0
VERTEX
  5
AF
  8
16
 10
101.6246155941387
 20
33.84100000000001
 30
0.0
 42
-0.1989026328093278
  0
VERTEX
  5
B0
  8
16
 10
101.1756157011917
 20
33.65500905524726
 30
0.0
  0
VERTEX
  5
B1
  8
16
 10
91.46640389193968
 20
33.655
 30
0.0
 42
-0.2515709229054937
  0
VERTEX
  5
B2
  8
16
 10
90.50761560633994
 20
33.14000000000001
 30
0.0
  0
VERTEX
  5
B3
  8
16
 10
88.98361578805341
 20
33.14000000000001
 30
0.0
 42
-1.000000084310726
  0
VERTEX
  5
B4
  8
16
 10
88.9836157880534
 20
35.43999972581861
 30
0.0
  0
VERTEX
  5
B5
  8
16
 10
90.50761578801489
 20
35.43999999999996
 30
0.0
 42
-0.2515709245599119
  0
VERTEX
  5
B6
  8
16
 10
91.46640389193965
 20
34.925
 30
0.0
  0
VERTEX
  5
B7
  8
16
 10
100.9126155941387
 20
34.925
 30
0.0
  0
VERTEX
  5
B8
  8
16
 10
108.1606155941387
 20
42.173
 30
0.0
  0
VERTEX
  5
B9
  8
16
 10
108.1606155941387
 20
44.10721170219906
 30
0.0
 42
-0.2515711498645679
  0
VERTEX
  5
BA
  8
16
 10
107.6456158683201
 20
45.06600000001732
 30
0.0
  0
VERTEX
  5
BB
  8
16
 10
107.6456155941388
 20
46.37400019387797
 30
0.0
  0
SEQEND
  5
BC
  8
16
  0
POLYLINE
  5
BD
  8
16
 66
     1
 10
0.0
 20
0.0
 30
0.0
  0
VERTEX
  5
BE
  8
16
 10
88.98361558193152
 20
32.89999999999998
 30
0.0
  0
VERTEX
  5
BF
  8
16
 10
90.50761578801547
 20
32.89999972581862
 30
0.0
 42
-0.2515710584707807
  0
VERTEX
  5
C0
  8
16
 10
91.46640389193968
 20
32.38500000000001
 30
0.0
  0
VERTEX
  5
C1
  8
16
 10
97.36561559413873
 20
32.38500000000001
 30
0.0
 42
-0.2008759562272823
  0
VERTEX
  5
C2
  8
16
 10
97.8180067626043
 20
32.19560883148156
 30
0.0
  0
VERTEX
  5
C3
  8
16
 10
97.95364668926739
 20
32.05996890487134
 30
0.0
 42
-0.6150317979703521
  0
VERTEX
  5
C4
  8
16
 10
99.78561559413872
 20
31.13400003795685
 30
0.0
  0
VERTEX
  5
C5
  8
16
 10
99.78561559413869
 20
29.82599996200874
 30
0.0
 42
-0.2515709231403317
  0
VERTEX
  5
C6
  8
16
 10
99.27061559413873
 20
28.86721170219908
 30
0.0
  0
VERTEX
  5
C7
  8
16
 10
99.27061559413872
 20
21.7678
 30
0.0
 42
-0.200875956225808
  0
VERTEX
  5
C8
  8
16
 10
99.08122442562285
 20
21.31540883153695
 30
0.0
  0
VERTEX
  5
C9
  8
16
 10
91.98781559413872
 20
14.22199999999999
 30
0.0
  0
VERTEX
  5
CA
  8
16
 10
91.98781559413872
 20
12.82
 30
0.0
  0
VERTEX
  5
CB
  8
16
 10
89.68781559413873
 20
12.82
 30
0.0
  0
VERTEX
  5
CC
  8
16
 10
89.68781559413873
 20
15.12
 30
0.0
  0
VERTEX
  5
CD
  8
16
 10
91.08981559413873
 20
15.12
 30
0.0
  0
VERTEX
  5
CE
  8
16
 10
98.00061559413872
 20
22.0308
 30
0.0
  0
VERTEX
  5
CF
  8
16
 10
98.00061559413874
 20
28.86721170219908
 30
0.0
 42
-0.2515709231403531
  0
VERTEX
  5
D0
  8
16
 10
97.48561559413875
 20
29.82599996200874
 30
0.0
  0
VERTEX
  5
D1
  8
16
 10
97.48561559413872
 20
30.732
 30
0.0
  0
VERTEX
  5
D2
  8
16
 10
97.10261559413873
 20
31.115
 30
0.0
  0
VERTEX
  5
D3
  8
16
 10
91.46640389193966
 20
31.115
 30
0.0
 42
-0.2515709229055012
  0
VERTEX
  5
D4
  8
16
 10
90.50761560634052
 20
30.60000000000003
 30
0.0
  0
VERTEX
  5
D5
  8
16
 10
88.98361558193153
 20
30.60000000000003
 30
0.0
 42
-0.9999998261051859
  0
VERTEX
  5
D6
  8
16
 10
88.98361558193153
 20
32.89999999999998
 30
0.0
  0
SEQEND
  5
D7
  8
16
  0
POLYLINE
  5
D8
  8
16
 66
     1
 10
0.0
 20
0.0
 30
0.0
  0
VERTEX
  5
D9
  8
16
 10
88.41781559413873
 20
51.818
 30
0.0
  0
VERTEX
  5
DA
  8
16
 10
88.41781559413873
 20
53.22
 30
0.0
  0
VERTEX
  5
DB
  8
16
 10
90.71781559413873
 20
53.22
 30
0.0
  0
VERTEX
  5
DC
  8
16
 10
90.71781559413873
 20
50.92
 30
0.0
  0
VERTEX
  5
DD
  8
16
 10
89.31581559413873
 20
50.92
 30
0.0
  0
VERTEX
  5
DE
  8
16
 10
85.30061559413873
 20
46.90480000000001
 30
0.0
  0
VERTEX
  5
DF
  8
16
 10
85.30061559413872
 20
30.74299999999999
 30
0.0
  0
VERTEX
  5
E0
  8
16
 10
86.19861559413873
 20
29.845
 30
0.0
  0
VERTEX
  5
E1
  8
16
 10
88.02482729633779
 20
29.84499999999999
 30
0.0
 42
-0.2515713230005244
  0
VERTEX
  5
E2
  8
16
 10
88.98361578801462
 20
30.35999972581861
 30
0.0
  0
VERTEX
  5
E3
  8
16
 10
90.50761578802991
 20
30.35999999999997
 30
0.0
 42
-0.9999999103881074
  0
VERTEX
  5
E4
  8
16
 10
90.50761560635496
 20
28.06000000000001
 30
0.0
  0
VERTEX
  5
E5
  8
16
 10
88.98361578801463
 20
28.0600002741814
 30
0.0
 42
-0.2515711833716382
  0
VERTEX
  5
E6
  8
16
 10
88.0248272963378
 20
28.575
 30
0.0
  0
VERTEX
  5
E7
  8
16
 10
85.93561548708573
 20
28.57500905524726
 30
0.0
 42
-0.1989026292052938
  0
VERTEX
  5
E8
  8
16
 10
85.48661544274293
 20
28.7610001513958
 30
0.0
  0
VERTEX
  5
E9
  8
16
 10
84.22000676263103
 20
30.02760883150771
 30
0.0
 42
-0.2008759561907607
  0
VERTEX
  5
EA
  8
16
 10
84.03061559413872
 20
30.48
 30
0.0
  0
VERTEX
  5
EB
  8
16
 10
84.03062464938597
 20
47.16779801065923
 30
0.0
 42
-0.1989027173900058
  0
VERTEX
  5
EC
  8
16
 10
84.21661559413874
 20
47.6168
 30
0.0
  0
VERTEX
  5
ED
  8
16
 10
88.41781559413873
 20
51.818
 30
0.0
  0
SEQEND
  5
EE
  8
16
  0
POLYLINE
  5
EF
  8
16
 66
     1
 10
0.0
 20
0.0
 30
0.0
  0
VERTEX
  5
F0
  8
16
 10
105.1056155941388
 20
31.13400019387674
 30
0.0
 42
-0.9999998992053752
  0
VERTEX
  5
F1
  8
16
 10
107.4056155941387
 20
31.13400003795098
 30
0.0
  0
VERTEX
  5
F2
  8
16
 10
107.4056155941387
 20
29.8260001938967
 30
0.0
 42
-0.2515710607730191
  0
VERTEX
  5
F3
  8
16
 10
106.8906155941387
 20
28.86721170219906
 30
0.0
  0
VERTEX
  5
F4
  8
16
 10
106.8906155941387
 20
16.13800000000001
 30
0.0
  0
VERTEX
  5
F5
  8
16
 10
108.4236155941387
 20
14.605
 30
0.0
  0
VERTEX
  5
F6
  8
16
 10
124.1556155941387
 20
14.605
 30
0.0
  0
VERTEX
  5
F7
  8
16
 10
124.1556155941387
 20
14.90980019390218
 30
0.0
 42
-0.9999999288093449
  0
VERTEX
  5
F8
  8
16
 10
126.4556155941387
 20
14.9097999698364
 30
0.0
  0
VERTEX
  5
F9
  8
16
 10
126.4556155941387
 20
13.03020003017593
 30
0.0
 42
-1.000000026239956
  0
VERTEX
  5
FA
  8
16
 10
124.1556155941388
 20
13.03020003017593
 30
0.0
  0
VERTEX
  5
FB
  8
16
 10
124.1556155941387
 20
13.335
 30
0.0
  0
VERTEX
  5
FC
  8
16
 10
108.160617637982
 20
13.33500905524724
 30
0.0
 42
-0.1989027183092867
  0
VERTEX
  5
FD
  8
16
 10
107.7116155941387
 20
13.521
 30
0.0
  0
VERTEX
  5
FE
  8
16
 10
105.8100067626308
 20
15.42260883150789
 30
0.0
 42
-0.2008759561906748
  0
VERTEX
  5
FF
  8
16
 10
105.6206155941387
 20
15.875
 30
0.0
  0
VERTEX
  5
100
  8
16
 10
105.6206155941387
 20
28.86721170219906
 30
0.0
 42
-0.2515711498645903
  0
VERTEX
  5
101
  8
16
 10
105.1056158683201
 20
29.82600000002118
 30
0.0
  0
VERTEX
  5
102
  8
16
 10
105.1056155941388
 20
31.13400019387673
 30
0.0
  0
SEQEND
  5
103
  8
16
  0
POLYLINE
  5
104
  8
16
 66
     1
 10
0.0
 20
0.0
 30
0.0
  0
VERTEX
  5
105
  8
16
 10
125.4256155941387
 20
31.134
 30
0.0
 42
-1.000000203513621
  0
VERTEX
  5
106
  8
16
 10
127.7256153199573
 20
31.13399980610009
 30
0.0
  0
VERTEX
  5
107
  8
16
 10
127.7256155941387
 20
29.82599996200555
 30
0.0
 42
-0.2515709231403969
  0
VERTEX
  5
108
  8
16
 10
127.2106155941387
 20
28.86721170219906
 30
0.0
  0
VERTEX
  5
109
  8
16
 10
127.2106155941387
 20
21.218
 30
0.0
  0
VERTEX
  5
10A
  8
16
 10
128.2946155941387
 20
20.134
 30
0.0
 42
-0.1989026838334101
  0
VERTEX
  5
10B
  8
16
 10
128.4806065388915
 20
19.685
 30
0.0
  0
VERTEX
  5
10C
  8
16
 10
128.4806155941387
 20
15.86858829780092
 30
0.0
 42
-0.2515709225196264
  0
VERTEX
  5
10D
  8
16
 10
128.9956155941387
 20
14.90979996982715
 30
0.0
  0
VERTEX
  5
10E
  8
16
 10
128.9956155941387
 20
13.03020019390343
 30
0.0
 42
-1.000000203527284
  0
VERTEX
  5
10F
  8
16
 10
126.6956158683201
 20
13.03020000002791
 30
0.0
  0
VERTEX
  5
110
  8
16
 10
126.6956155941388
 20
14.90980019389293
 30
0.0
 42
-0.2515709245600629
  0
VERTEX
  5
111
  8
16
 10
127.2106155941387
 20
15.86858829780093
 30
0.0
  0
VERTEX
  5
112
  8
16
 10
127.2106155941387
 20
19.422
 30
0.0
  0
VERTEX
  5
113
  8
16
 10
126.1300067626308
 20
20.50260883150792
 30
0.0
 42
-0.2008759561906027
  0
VERTEX
  5
114
  8
16
 10
125.9406155941387
 20
20.955
 30
0.0
  0
VERTEX
  5
115
  8
16
 10
125.9406155941387
 20
28.86721170219907
 30
0.0
 42
-0.2515709231403565
  0
VERTEX
  5
116
  8
16
 10
125.4256155941387
 20
29.82599996200555
 30
0.0
  0
VERTEX
  5
117
  8
16
 10
125.4256155941387
 20
31.1339999999512
 30
0.0
  0
SEQEND
  5
118
  8
16
  0
POLYLINE
  5
119
  8
16
 66
     1
 10
0.0
 20
0.0
 30
0.0
  0
VERTEX
  5
11A
  8
16
 10
102.5656155941387
 20
31.13400019390395
 30
0.0
 42
-0.9999998991817064
  0
VERTEX
  5
11B
  8
16
 10
104.8656155941387
 20
31.1340000379782
 30
0.0
  0
VERTEX
  5
11C
  8
16
 10
104.8656155941387
 20
29.82600019395235
 30
0.0
 42
-1.000000203569853
  0
VERTEX
  5
11D
  8
16
 10
102.5656158683201
 20
29.82600000007684
 30
0.0
  0
VERTEX
  5
11E
  8
16
 10
102.5656155941387
 20
31.13400019390394
 30
0.0
  0
SEQEND
  5
11F
  8
16
  0
POLYLINE
  5
120
  8
16
 66
     1
 10
0.0
 20
0.0
 30
0.0
  0
VERTEX
  5
121
  8
16
 10
107.6456155941387
 20
31.134
 30
0.0
 42
-1.0000002035036
  0
VERTEX
  5
122
  8
16
 10
109.9456153199574
 20
31.13399980612316
 30
0.0
  0
VERTEX
  5
123
  8
16
 10
109.9456155941387
 20
29.82600019391087
 30
0.0
 42
-1.000000203533787
  0
VERTEX
  5
124
  8
16
 10
107.6456158683201
 20
29.82600000003536
 30
0.0
  0
VERTEX
  5
125
  8
16
 10
107.6456155941387
 20
31.13399999999735
 30
0.0
  0
SEQEND
  5
126
  8
16
  0
POLYLINE
  5
127
  8
16
 66
     1
 10
0.0
 20
0.0
 30
0.0
  0
VERTEX
  5
128
  8
16
 10
110.1856155941387
 20
31.134
 30
0.0
 42
-1.000000203503525
  0
VERTEX
  5
129
  8
16
 10
112.4856153199573
 20
31.13399980612333
 30
0.0
  0
VERTEX
  5
12A
  8
16
 10
112.4856155941387
 20
29.82599996201321
 30
0.0
 42
-0.9999999669680177
  0
VERTEX
  5
12B
  8
16
 10
110.1856155941387
 20
29.82599996201321
 30
0.0
  0
VERTEX
  5
12C
  8
16
 10
110.1856155941387
 20
31.13399999999769
 30
0.0
  0
SEQEND
  5
12D
  8
16
  0
POLYLINE
  5
12E
  8
16
 66
     1
 10
0.0
 20
0.0
 30
0.0
  0
VERTEX
  5
12F
  8
16
 10
111.9706155941387
 20
52.19
 30
0.0
  0
VERTEX
  5
130
  8
16
 10
111.2778155941387
 20
52.19
 30
0.0
  0
VERTEX
  5
131
  8
16
 10
111.2778155941387
 20
54.49
 30
0.0
  0
VERTEX
  5
132
  8
16
 10
113.5778155941387
 20
54.49
 30
0.0
  0
VERTEX
  5
133
  8
16
 10
113.5778155941387
 20
52.19
 30
0.0
  0
VERTEX
  5
134
  8
16
 10
113.2406155941387
 20
52.19
 30
0.0
  0
VERTEX
  5
135
  8
16
 10
113.2406155941387
 20
51.69800000000001
 30
0.0
  0
VERTEX
  5
136
  8
16
 10
114.1386155941387
 20
50.8
 30
0.0
  0
VERTEX
  5
137
  8
16
 10
133.5606155941387
 20
50.8
 30
0.0
 42
-0.2008759562268189
  0
VERTEX
  5
138
  8
16
 10
134.0130067626037
 20
50.61060883148222
 30
0.0
  0
VERTEX
  5
139
  8
16
 10
137.1812244256461
 20
47.44239116849267
 30
0.0
 42
-0.2008759561910698
  0
VERTEX
  5
13A
  8
16
 10
137.3706155941388
 20
46.99
 30
0.0
  0
VERTEX
  5
13B
  8
16
 10
137.3706065388915
 20
38.73500098407269
 30
0.0
 42
-0.1989027004334757
  0
VERTEX
  5
13C
  8
16
 10
137.1846155941387
 20
38.28599999999999
 30
0.0
  0
VERTEX
  5
13D
  8
16
 10
134.6480067626304
 20
35.74939116849163
 30
0.0
 42
-0.2008759561903989
  0
VERTEX
  5
13E
  8
16
 10
134.1956155941387
 20
35.56
 30
0.0
  0
VERTEX
  5
13F
  8
16
 10
117.3136155941387
 20
35.56
 30
0.0
  0
VERTEX
  5
140
  8
16
 10
114.5106155941387
 20
32.75699999999999
 30
0.0
  0
VERTEX
  5
141
  8
16
 10
114.5106155941387
 20
32.09278829780095
 30
0.0
 42
-0.251571049460849
  0
VERTEX
  5
142
  8
16
 10
115.0256155941387
 20
31.13399980612432
 30
0.0
  0
VERTEX
  5
143
  8
16
 10
115.0256155941387
 20
29.82599996202101
 30
0.0
 42
-0.2515709231402348
  0
VERTEX
  5
144
  8
16
 10
114.5106155941387
 20
28.86721170219907
 30
0.0
  0
VERTEX
  5
145
  8
16
 10
114.5106155941387
 20
18.2828
 30
0.0
 42
-0.2008759562274776
  0
VERTEX
  5
146
  8
16
 10
114.3212244256201
 20
17.83040883153422
 30
0.0
  0
VERTEX
  5
147
  8
16
 10
113.864789782438
 20
17.37397418829924
 30
0.0
 42
-3.321040059384639
  0
VERTEX
  5
148
  8
16
 10
112.966789782438
 20
18.27197418829924
 30
0.0
  0
VERTEX
  5
149
  8
16
 10
113.2406155941387
 20
18.5458
 30
0.0
  0
VERTEX
  5
14A
  8
16
 10
113.2406155941387
 20
28.86721170219905
 30
0.0
 42
-0.2515709231402329
  0
VERTEX
  5
14B
  8
16
 10
112.7256155941388
 20
29.82599996202101
 30
0.0
  0
VERTEX
  5
14C
  8
16
 10
112.7256158683201
 20
31.13399999999983
 30
0.0
 42
-0.2515711498647849
  0
VERTEX
  5
14D
  8
16
 10
113.2406155941387
 20
32.09278829780094
 30
0.0
  0
VERTEX
  5
14E
  8
16
 10
113.240624649386
 20
33.01999969720841
 30
0.0
 42
-0.1989026889413131
  0
VERTEX
  5
14F
  8
16
 10
113.4266155941387
 20
33.46899999999999
 30
0.0
  0
VERTEX
  5
150
  8
16
 10
116.6016155941387
 20
36.644
 30
0.0
 42
-0.1989026838333737
  0
VERTEX
  5
151
  8
16
 10
117.0506155941387
 20
36.82999094475277
 30
0.0
  0
VERTEX
  5
152
  8
16
 10
133.9326155941387
 20
36.83
 30
0.0
  0
VERTEX
  5
153
  8
16
 10
136.1006155941387
 20
38.998
 30
0.0
  0
VERTEX
  5
154
  8
16
 10
136.1006155941387
 20
46.72700000000001
 30
0.0
  0
VERTEX
  5
155
  8
16
 10
133.2976155941387
 20
49.53
 30
0.0
  0
VERTEX
  5
156
  8
16
 10
113.8756155941387
 20
49.53000000000001
 30
0.0
 42
-0.2008759562261295
  0
VERTEX
  5
157
  8
16
 10
113.4232244256751
 20
49.71939116851647
 30
0.0
  0
VERTEX
  5
158
  8
16
 10
112.1566155941387
 20
50.986
 30
0.0
 42
-0.1989026873065944
  0
VERTEX
  5
159
  8
16
 10
111.970624649386
 20
51.43500020589828
 30
0.0
  0
VERTEX
  5
15A
  8
16
 10
111.9706155941387
 20
52.19
 30
0.0
  0
SEQEND
  5
15B
  8
16
  0
POLYLINE
  5
15C
  8
16
 66
     1
 10
0.0
 20
0.0
 30
0.0
  0
VERTEX
  5
15D
  8
16
 10
115.1334155941387
 20
53.34
 30
0.0
 42
-0.7432324686653115
  0
VERTEX
  5
15E
  8
16
 10
117.2422038919397
 20
53.97500000000001
 30
0.0
  0
VERTEX
  5
15F
  8
16
 10
132.9256136102339
 20
53.97499094475277
 30
0.0
 42
-0.1989027172983624
  0
VERTEX
  5
160
  8
16
 10
133.3746155941387
 20
53.78899999999999
 30
0.0
  0
VERTEX
  5
161
  8
16
 10
139.0862244256458
 20
48.07739116849294
 30
0.0
 42
-0.2008759561912264
  0
VERTEX
  5
162
  8
16
 10
139.2756155941387
 20
47.625
 30
0.0
  0
VERTEX
  5
163
  8
16
 10
139.2756065388915
 20
37.46500121116639
 30
0.0
 42
-0.1989027042642651
  0
VERTEX
  5
164
  8
16
 10
139.0896155941387
 20
37.01600000000001
 30
0.0
  0
VERTEX
  5
165
  8
16
 10
135.9180067626301
 20
33.84439116849139
 30
0.0
 42
-0.2008759561902902
  0
VERTEX
  5
166
  8
16
 10
135.4656155941387
 20
33.65500000000002
 30
0.0
  0
VERTEX
  5
167
  8
16
 10
118.5836155941387
 20
33.655
 30
0.0
  0
VERTEX
  5
168
  8
16
 10
117.0506155941387
 20
32.12200000000001
 30
0.0
  0
VERTEX
  5
169
  8
16
 10
117.0506155941387
 20
32.09278829780093
 30
0.0
 42
-0.2515711833716474
  0
VERTEX
  5
16A
  8
16
 10
117.5656153199573
 20
31.13399980612399
 30
0.0
  0
VERTEX
  5
16B
  8
16
 10
117.5656155941387
 20
29.826
 30
0.0
 42
-0.251571015953885
  0
VERTEX
  5
16C
  8
16
 10
117.0506155941387
 20
28.86721170219906
 30
0.0
  0
VERTEX
  5
16D
  8
16
 10
117.0506155941387
 20
18.295
 30
0.0
  0
VERTEX
  5
16E
  8
16
 10
117.7434155941387
 20
18.295
 30
0.0
  0
VERTEX
  5
16F
  8
16
 10
117.7434155941387
 20
15.995
 30
0.0
  0
VERTEX
  5
170
  8
16
 10
115.4434155941387
 20
15.995
 30
0.0
  0
VERTEX
  5
171
  8
16
 10
115.4434155941387
 20
18.295
 30
0.0
  0
VERTEX
  5
172
  8
16
 10
115.7806155941387
 20
18.295
 30
0.0
  0
VERTEX
  5
173
  8
16
 10
115.7806155941387
 20
28.86721170219906
 30
0.0
 42
-0.2515710159538443
  0
VERTEX
  5
174
  8
16
 10
115.2656155941387
 20
29.826
 30
0.0
  0
VERTEX
  5
175
  8
16
 10
115.2656158683201
 20
31.13399999999951
 30
0.0
 42
-0.2515711498647574
  0
VERTEX
  5
176
  8
16
 10
115.7806155941387
 20
32.09278829780094
 30
0.0
 42
-0.2310963609082581
  0
VERTEX
  5
177
  8
16
 10
115.9700067626581
 20
32.83739116846649
 30
0.0
  0
VERTEX
  5
178
  8
16
 10
117.8716155941387
 20
34.739
 30
0.0
 42
-0.1989026838333869
  0
VERTEX
  5
179
  8
16
 10
118.3206155941387
 20
34.92499094475277
 30
0.0
  0
VERTEX
  5
17A
  8
16
 10
135.2026155941387
 20
34.925
 30
0.0
  0
VERTEX
  5
17B
  8
16
 10
138.0056155941387
 20
37.72800000000001
 30
0.0
  0
VERTEX
  5
17C
  8
16
 10
138.0056155941387
 20
47.36200000000001
 30
0.0
  0
VERTEX
  5
17D
  8
16
 10
132.6626155941387
 20
52.70499999999999
 30
0.0
  0
VERTEX
  5
17E
  8
16
 10
117.2422038919397
 20
52.705
 30
0.0
 42
-0.7432324686653305
  0
VERTEX
  5
17F
  8
16
 10
115.1334155941387
 20
53.34
 30
0.0
  0
SEQEND
  5
180
  8
16
  0
POLYLINE
  5
181
  8
16
 66
     1
 10
0.0
 20
0.0
 30
0.0
  0
VERTEX
  5
182
  8
16
 10
117.8056155941388
 20
31.13400019390856
 30
0.0
 42
-0.9999998991777072
  0
VERTEX
  5
183
  8
16
 10
120.1056155941387
 20
31.1340000379828
 30
0.0
  0
VERTEX
  5
184
  8
16
 10
120.1056155941387
 20
29.826
 30
0.0
 42
-1.000000000000006
  0
VERTEX
  5
185
  8
16
 10
117.8056155941387
 20
29.82599999999999
 30
0.0
  0
VERTEX
  5
186
  8
16
 10
117.8056155941388
 20
31.13400019390855
 30
0.0
  0
SEQEND
  5
187
  8
16
  0
POLYLINE
  5
188
  8
16
 66
     1
 10
0.0
 20
0.0
 30
0.0
  0
VERTEX
  5
189
  8
16
 10
120.3456155941388
 20
31.13400003795832
 30
0.0
 42
-0.9999999669927884
  0
VERTEX
  5
18A
  8
16
 10
122.6456155941387
 20
31.13400003795832
 30
0.0
  0
VERTEX
  5
18B
  8
16
 10
122.6456155941387
 20
29.826
 30
0.0
 42
-0.9999999157063154
  0
VERTEX
  5
18C
  8
16
 10
120.3456155941388
 20
29.82599980612449
 30
0.0
  0
VERTEX
  5
18D
  8
16
 10
120.3456155941388
 20
31.13400003795832
 30
0.0
  0
SEQEND
  5
18E
  8
16
  0
POLYLINE
  5
18F
  8
16
 66
     1
 10
0.0
 20
0.0
 30
0.0
  0
VERTEX
  5
190
  8
16
 10
122.8856155941388
 20
31.13400019388657
 30
0.0
 42
-0.9999998991968161
  0
VERTEX
  5
191
  8
16
 10
125.1856155941387
 20
31.13400003796082
 30
0.0
  0
VERTEX
  5
192
  8
16
 10
125.1856155941387
 20
29.82600019387552
 30
0.0
 42
-1.000000203503056
  0
VERTEX
  5
193
  8
16
 10
122.8856158683201
 20
29.82600000000001
 30
0.0
  0
VERTEX
  5
194
  8
16
 10
122.8856155941388
 20
31.13400019388657
 30
0.0
  0
SEQEND
  5
195
  8
16
  0
POLYLINE
  5
196
  8
16
 66
     1
 10
0.0
 20
0.0
 30
0.0
  0
VERTEX
  5
197
  8
16
 10
127.9656155941387
 20
31.134
 30
0.0
 42
-1.000000084313085
  0
VERTEX
  5
198
  8
16
 10
130.2656155941387
 20
31.13399980607985
 30
0.0
  0
VERTEX
  5
199
  8
16
 10
130.2656155941386
 20
29.82600019388409
 30
0.0
 42
-1.000000203510465
  0
VERTEX
  5
19A
  8
16
 10
127.96561586832
 20
29.82600000000858
 30
0.0
  0
VERTEX
  5
19B
  8
16
 10
127.9656155941387
 20
31.13399999991072
 30
0.0
  0
SEQEND
  5
19C
  8
16
  0
POLYLINE
  5
19D
  8
16
 66
     1
 10
0.0
 20
0.0
 30
0.0
  0
VERTEX
  5
19E
  8
16
 10
130.5056155941388
 20
31.13400019387583
 30
0.0
 42
-0.9999998992061662
  0
VERTEX
  5
19F
  8
16
 10
132.8056155941387
 20
31.13400003795008
 30
0.0
  0
VERTEX
  5
1A0
  8
16
 10
132.8056155941387
 20
29.82600019394274
 30
0.0
 42
-1.000000203561501
  0
VERTEX
  5
1A1
  8
16
 10
130.5056158683201
 20
29.82600000006722
 30
0.0
  0
VERTEX
  5
1A2
  8
16
 10
130.5056155941388
 20
31.13400019387583
 30
0.0
  0
SEQEND
  5
1A3
  8
16
  0
POLYLINE
  5
1A4
  8
16
 66
     1
 10
0.0
 20
0.0
 30
0.0
  0
VERTEX
  5
1A5
  8
16
 10
133.0456155941388
 20
31.13400019388314
 30
0.0
 42
-0.9999998991997775
  0
VERTEX
  5
1A6
  8
16
 10
135.3456155941387
 20
31.13400003795739
 30
0.0
  0
VERTEX
  5
1A7
  8
16
 10
135.3456155941387
 20
29.82600019395757
 30
0.0
 42
-1.000000203574396
  0
VERTEX
  5
1A8
  8
16
 10
133.0456158683201
 20
29.82600000008205
 30
0.0
  0
VERTEX
  5
1A9
  8
16
 10
133.0456155941388
 20
31.13400019388314
 30
0.0
  0
SEQEND
  5
1AA
  8
16
  0
POLYLINE
  5
1AB
  8
16
 66
     1
 10
0.0
 20
0.0
 30
0.0
  0
VERTEX
  5
1AC
  8
16
 10
97.48561586832008
 20
46.374
 30
0.0
 42
-1.000000119209327
  0
VERTEX
  5
1AD
  8
16
 10
99.78561559413876
 20
46.374
 30
0.0
  0
VERTEX
  5
1AE
  8
16
 10
99.78561559413872
 20
45.06599996201754
 30
0.0
 42
-0.9999999669717994
  0
VERTEX
  5
1AF
  8
16
 10
97.48561559413874
 20
45.06599996201755
 30
0.0
  0
VERTEX
  5
1B0
  8
16
 10
97.48561586832008
 20
46.374
 30
0.0
  0
SEQEND
  5
1B1
  8
16
  0
POLYLINE
  5
1B2
  8
16
 66
     1
 10
0.0
 20
0.0
 30
0.0
  0
VERTEX
  5
1B3
  8
16
 10
100.0256155941387
 20
46.374
 30
0.0
 42
-1.00000020350954
  0
VERTEX
  5
1B4
  8
16
 10
102.3256153199573
 20
46.37399980610943
 30
0.0
  0
VERTEX
  5
1B5
  8
16
 10
102.3256155941387
 20
45.06600019387552
 30
0.0
 42
-1.000000203503038
  0
VERTEX
  5
1B6
  8
16
 10
100.0256158683201
 20
45.066
 30
0.0
  0
VERTEX
  5
1B7
  8
16
 10
100.0256155941387
 20
46.37399999996988
 30
0.0
  0
SEQEND
  5
1B8
  8
16
  0
POLYLINE
  5
1B9
  8
16
 66
     1
 10
0.0
 20
0.0
 30
0.0
  0
VERTEX
  5
1BA
  8
16
 10
102.5656158683201
 20
46.37399999994054
 30
0.0
 42
-1.000000203554722
  0
VERTEX
  5
1BB
  8
16
 10
104.8656155941387
 20
46.37399980606504
 30
0.0
  0
VERTEX
  5
1BC
  8
16
 10
104.8656155941387
 20
45.0659999620347
 30
0.0
 42
-0.9999999669867174
  0
VERTEX
  5
1BD
  8
16
 10
102.5656155941388
 20
45.06599996203471
 30
0.0
  0
VERTEX
  5
1BE
  8
16
 10
102.5656158683201
 20
46.37399999994054
 30
0.0
  0
SEQEND
  5
1BF
  8
16
  0
POLYLINE
  5
1C0
  8
16
 66
     1
 10
0.0
 20
0.0
 30
0.0
  0
VERTEX
  5
1C1
  8
16
 10
105.1056158683201
 20
46.37399999999744
 30
0.0
 42
-1.000000322714586
  0
VERTEX
  5
1C2
  8
16
 10
107.4056153199574
 20
46.37399980612192
 30
0.0
  0
VERTEX
  5
1C3
  8
16
 10
107.4056155941387
 20
45.0660001938775
 30
0.0
 42
-1.000000203504718
  0
VERTEX
  5
1C4
  8
16
 10
105.1056158683201
 20
45.06600000000198
 30
0.0
  0
VERTEX
  5
1C5
  8
16
 10
105.1056158683201
 20
46.37399999999744
 30
0.0
  0
SEQEND
  5
1C6
  8
16
  0
POLYLINE
  5
1C7
  8
16
 66
     1
 10
0.0
 20
0.0
 30
0.0
  0
VERTEX
  5
1C8
  8
16
 10
110.1856158683201
 20
46.37399999999991
 30
0.0
 42
-1.000000322712451
  0
VERTEX
  5
1C9
  8
16
 10
112.4856153199574
 20
46.3739998061244
 30
0.0
  0
VERTEX
  5
1CA
  8
16
 10
112.4856155941387
 20
45.06600019393073
 30
0.0
 42
-1.000000203551036
  0
VERTEX
  5
1CB
  8
16
 10
110.1856158683201
 20
45.06600000005521
 30
0.0
  0
VERTEX
  5
1CC
  8
16
 10
110.1856158683201
 20
46.37399999999991
 30
0.0
  0
SEQEND
  5
1CD
  8
16
  0
POLYLINE
  5
1CE
  8
16
 66
     1
 10
0.0
 20
0.0
 30
0.0
  0
VERTEX
  5
1CF
  8
16
 10
112.7256155941387
 20
46.374
 30
0.0
 42
-1.000000203503179
  0
VERTEX
  5
1D0
  8
16
 10
115.0256153199573
 20
46.37399980612415
 30
0.0
  0
VERTEX
  5
1D1
  8
16
 10
115.0256155941387
 20
45.06600019393262
 30
0.0
 42
-1.00000020355267
  0
VERTEX
  5
1D2
  8
16
 10
112.7256158683201
 20
45.0660000000571
 30
0.0
  0
VERTEX
  5
1D3
  8
16
 10
112.7256155941387
 20
46.37399999999933
 30
0.0
  0
SEQEND
  5
1D4
  8
16
  0
POLYLINE
  5
1D5
  8
16
 66
     1
 10
0.0
 20
0.0
 30
0.0
  0
VERTEX
  5
1D6
  8
16
 10
115.2656158683201
 20
46.37400019387605
 30
0.0
 42
-1.000000018415259
  0
VERTEX
  5
1D7
  8
16
 10
117.5656155941387
 20
46.37400003795031
 30
0.0
  0
VERTEX
  5
1D8
  8
16
 10
117.5656155941387
 20
45.06600019389523
 30
0.0
 42
-1.000000203520192
  0
VERTEX
  5
1D9
  8
16
 10
115.2656158683201
 20
45.06600000001973
 30
0.0
  0
VERTEX
  5
1DA
  8
16
 10
115.2656158683201
 20
46.37400019387605
 30
0.0
  0
SEQEND
  5
1DB
  8
16
  0
POLYLINE
  5
1DC
  8
16
 66
     1
 10
0.0
 20
0.0
 30
0.0
  0
VERTEX
  5
1DD
  8
16
 10
117.8056155941388
 20
46.37400019391039
 30
0.0
 42
-0.9999998991760793
  0
VERTEX
  5
1DE
  8
16
 10
120.1056155941387
 20
46.37400003798465
 30
0.0
  0
VERTEX
  5
1DF
  8
16
 10
120.1056155941387
 20
45.06600019390707
 30
0.0
 42
-1.000000203530482
  0
VERTEX
  5
1E0
  8
16
 10
117.8056158683201
 20
45.06600000003155
 30
0.0
  0
VERTEX
  5
1E1
  8
16
 10
117.8056155941388
 20
46.37400019391039
 30
0.0
  0
SEQEND
  5
1E2
  8
16
  0
POLYLINE
  5
1E3
  8
16
 66
     1
 10
0.0
 20
0.0
 30
0.0
  0
VERTEX
  5
1E4
  8
16
 10
120.3456155941387
 20
46.37400019391976
 30
0.0
 42
-0.999999899167911
  0
VERTEX
  5
1E5
  8
16
 10
122.6456155941387
 20
46.37400003799402
 30
0.0
  0
VERTEX
  5
1E6
  8
16
 10
122.6456155941387
 20
45.06600019387776
 30
0.0
 42
-1.000000203504986
  0
VERTEX
  5
1E7
  8
16
 10
120.3456158683201
 20
45.06600000000224
 30
0.0
  0
VERTEX
  5
1E8
  8
16
 10
120.3456155941387
 20
46.37400019391976
 30
0.0
  0
SEQEND
  5
1E9
  8
16
  0
POLYLINE
  5
1EA
  8
16
 66
     1
 10
0.0
 20
0.0
 30
0.0
  0
VERTEX
  5
1EB
  8
16
 10
122.8856155941388
 20
46.37400019389288
 30
0.0
 42
-0.9999998991913005
  0
VERTEX
  5
1EC
  8
16
 10
125.1856155941387
 20
46.37400003796714
 30
0.0
  0
VERTEX
  5
1ED
  8
16
 10
125.1856155941387
 20
45.06599996205021
 30
0.0
 42
-0.9999999670002118
  0
VERTEX
  5
1EE
  8
16
 10
122.8856155941387
 20
45.06599996205023
 30
0.0
  0
VERTEX
  5
1EF
  8
16
 10
122.8856155941388
 20
46.37400019389288
 30
0.0
  0
SEQEND
  5
1F0
  8
16
  0
POLYLINE
  5
1F1
  8
16
 66
     1
 10
0.0
 20
0.0
 30
0.0
  0
VERTEX
  5
1F2
  8
16
 10
125.4256155941388
 20
46.37400019389727
 30
0.0
 42
-0.999999899187488
  0
VERTEX
  5
1F3
  8
16
 10
127.7256155941387
 20
46.37400003797153
 30
0.0
  0
VERTEX
  5
1F4
  8
16
 10
127.7256155941387
 20
45.06600019387841
 30
0.0
 42
-1.000000203505536
  0
VERTEX
  5
1F5
  8
16
 10
125.4256158683201
 20
45.0660000000029
 30
0.0
  0
VERTEX
  5
1F6
  8
16
 10
125.4256155941387
 20
46.37400019389727
 30
0.0
  0
SEQEND
  5
1F7
  8
16
  0
POLYLINE
  5
1F8
  8
16
 66
     1
 10
0.0
 20
0.0
 30
0.0
  0
VERTEX
  5
1F9
  8
16
 10
127.9656155941388
 20
46.374000193911
 30
0.0
 42
-0.9999998991755726
  0
VERTEX
  5
1FA
  8
16
 10
130.2656155941387
 20
46.37400003798526
 30
0.0
  0
VERTEX
  5
1FB
  8
16
 10
130.2656155941387
 20
45.06600019391158
 30
0.0
 42
-1.000000203534391
  0
VERTEX
  5
1FC
  8
16
 10
127.96561586832
 20
45.06600000003607
 30
0.0
  0
VERTEX
  5
1FD
  8
16
 10
127.9656155941388
 20
46.374000193911
 30
0.0
  0
SEQEND
  5
1FE
  8
16
  0
POLYLINE
  5
1FF
  8
16
 66
     1
 10
0.0
 20
0.0
 30
0.0
  0
VERTEX
  5
200
  8
16
 10
130.5056155941387
 20
46.374
 30
0.0
 42
-1.000000000000034
  0
VERTEX
  5
201
  8
16
 10
132.8056155941387
 20
46.37400000000004
 30
0.0
  0
VERTEX
  5
202
  8
16
 10
132.8056155941387
 20
45.06600019387581
 30
0.0
 42
-1.000000203503303
  0
VERTEX
  5
203
  8
16
 10
130.5056158683201
 20
45.06600000000029
 30
0.0
  0
VERTEX
  5
204
  8
16
 10
130.5056155941387
 20
46.374
 30
0.0
  0
SEQEND
  5
205
  8
16
  0
POLYLINE
  5
206
  8
16
 66
     1
 10
0.0
 20
0.0
 30
0.0
  0
VERTEX
  5
207
  8
16
 10
133.0456155941387
 20
46.374
 30
0.0
 42
-1.000000203505422
  0
VERTEX
  5
208
  8
16
 10
135.3456153199574
 20
46.37399980611895
 30
0.0
  0
VERTEX
  5
209
  8
16
 10
135.3456155941387
 20
45.06600019392557
 30
0.0
 42
-1.000000203546517
  0
VERTEX
  5
20A
  8
16
 10
133.04561586832
 20
45.06600000005005
 30
0.0
  0
VERTEX
  5
20B
  8
16
 10
133.0456155941387
 20
46.37399999998891
 30
0.0
  0
SEQEND
  5
20C
  8
16
  0
ENDSEC
  0
EOF
