  0
SECTION
  2
HEADER
  9
$ACADVER
  1
AC1009
  9
$FILLMODE
 70
0
  9
$EXTMIN
 10
7.0249
 20
9.1429
 30
0.0000
  9
$EXTMAX
 10
68.9212
 20
57.1439
 30
0.0000
  0
ENDSEC
  0
SECTION
  2
TABLES
  0
TABLE
  2
LTYPE
 70
1
  0
LTYPE
  2
CONTINUOUS
 70
64
  3
Solid line
 72
65
 73
0
 40
0
  0
ENDTAB
  0
TABLE
  2
LAYER
 70
255
  0
LAYER
  2
16
 70
64
 62
132
  6
CONTINUOUS
  0
LAYER
  2
17
 70
64
 62
110
  6
CONTINUOUS
  0
LAYER
  2
20
 70
64
 62
31
  6
CONTINUOUS
  0
LAYER
  2
44
 70
64
 62
253
  6
CONTINUOUS
  0
ENDTAB
  0
ENDSEC
  0
SECTION
  2
BLOCKS
  0
BLOCK
  8
0
  2
RECT
 70
64
 10
0.0000
 20
0.0000
 30
0.0000
  3
RECT
  0
SOLID
  8
0
 10
-0.5000
 20
-0.5000
 30
0.0000
 11
0.5000
 21
-0.5000
 31
0.0000
 12
-0.5000
 22
0.5000
 32
0.0000
 13
0.5000
 23
0.5000
 33
0.0000
  0
ENDBLK
  8
0
  0
BLOCK
  8
0
  2
PIE
 70
64
 10
0.0000
 20
0.0000
 30
0.0000
  3
PIE
  0
CIRCLE
  8
0
 10
0.0000
 20
0.0000
 30
0.0000
 40
0.5000
  0
ENDBLK
  8
0
  0
BLOCK
  8
0
  2
OCTAGONP
 70
64
 10
0.0000
 20
0.0000
 30
0.0000
  3
OCTAGONP
  0
POLYLINE
  8
0
 66
1
 10
0.0000
 20
0.0000
 30
0.0000
 40
0.0000
 41
0.0000
 70
1
  0
VERTEX
  8
0
 10
-0.5000
 20
-0.2071
 30
0.0000
  0
VERTEX
  8
0
 10
-0.5000
 20
0.2071
 30
0.0000
  0
VERTEX
  8
0
 10
-0.2071
 20
0.5000
 30
0.0000
  0
VERTEX
  8
0
 10
0.2071
 20
0.5000
 30
0.0000
  0
VERTEX
  8
0
 10
0.5000
 20
0.2071
 30
0.0000
  0
VERTEX
  8
0
 10
0.5000
 20
-0.2071
 30
0.0000
  0
VERTEX
  8
0
 10
0.2071
 20
-0.5000
 30
0.0000
  0
VERTEX
  8
0
 10
-0.2071
 20
-0.5000
 30
0.0000
  0
SEQEND
  8
0
  0
ENDBLK
  8
0
  0
BLOCK
  8
0
  2
SQUAREP
 70
64
 10
0.0000
 20
0.0000
 30
0.0000
  3
SQUAREP
  0
SOLID
  8
0
 10
-0.5000
 20
-0.5000
 30
0.0000
 11
0.5000
 21
-0.5000
 31
0.0000
 12
-0.5000
 22
0.5000
 32
0.0000
 13
0.5000
 23
0.5000
 33
0.0000
  0
ENDBLK
  8
0
  0
BLOCK
  8
0
  2
ROUNDP
 70
64
 10
0.0000
 20
0.0000
 30
0.0000
  3
ROUNDP
  0
CIRCLE
  8
0
 10
0.0000
 20
0.0000
 30
0.0000
 40
0.5000
  0
ENDBLK
  8
0
  0
BLOCK
  8
0
  2
ANNULUSP
 70
64
 10
0.0000
 20
0.0000
 30
0.0000
  3
ANNULUSP
  0
CIRCLE
  8
0
 10
0.0000
 20
0.0000
 30
0.0000
 40
0.5000
  0
ENDBLK
  8
0
  0
BLOCK
  8
0
  2
THERMALP
 70
64
 10
0.0000
 20
0.0000
 30
0.0000
  3
THERMALP
  0
POLYLINE
  8
0
 66
1
 10
0.0000
 20
0.0000
 30
0.0000
 40
0.0000
 41
0.0000
 70
1
  0
VERTEX
  8
0
 10
-0.2379
 20
0.4000
 30
0.0000
  0
VERTEX
  8
0
 10
0.2379
 20
0.4000
 30
0.0000
 42
1.0000
  0
VERTEX
  8
0
 10
0.2379
 20
0.5000
 30
0.0000
  0
VERTEX
  8
0
 10
-0.2379
 20
0.5000
 30
0.0000
 42
1.0000
  0
SEQEND
  8
0
  0
POLYLINE
  8
0
 66
1
 10
0.0000
 20
0.0000
 30
0.0000
 40
0.0000
 41
0.0000
 70
1
  0
VERTEX
  8
0
 10
0.4000
 20
0.2379
 30
0.0000
  0
VERTEX
  8
0
 10
0.4000
 20
-0.2379
 30
0.0000
 42
1.0000
  0
VERTEX
  8
0
 10
0.5000
 20
-0.2379
 30
0.0000
  0
VERTEX
  8
0
 10
0.5000
 20
0.2379
 30
0.0000
 42
1.0000
  0
SEQEND
  8
0
  0
POLYLINE
  8
0
 66
1
 10
0.0000
 20
0.0000
 30
0.0000
 40
0.0000
 41
0.0000
 70
1
  0
VERTEX
  8
0
 10
0.2379
 20
-0.4000
 30
0.0000
  0
VERTEX
  8
0
 10
-0.2379
 20
-0.4000
 30
0.0000
 42
1.0000
  0
VERTEX
  8
0
 10
-0.2379
 20
-0.5000
 30
0.0000
  0
VERTEX
  8
0
 10
0.2379
 20
-0.5000
 30
0.0000
 42
1.0000
  0
SEQEND
  8
0
  0
POLYLINE
  8
0
 66
1
 10
0.0000
 20
0.0000
 30
0.0000
 40
0.0000
 41
0.0000
 70
1
  0
VERTEX
  8
0
 10
-0.4000
 20
-0.2379
 30
0.0000
  0
VERTEX
  8
0
 10
-0.4000
 20
0.2379
 30
0.0000
 42
1.0000
  0
VERTEX
  8
0
 10
-0.5000
 20
0.2379
 30
0.0000
  0
VERTEX
  8
0
 10
-0.5000
 20
-0.2379
 30
0.0000
 42
1.0000
  0
SEQEND
  8
0
  0
ENDBLK
  8
0
  0
BLOCK
  8
0
  2
OCTAGONV
 70
64
 10
0.0000
 20
0.0000
 30
0.0000
  3
OCTAGONV
  0
POLYLINE
  8
0
 66
1
 10
0.0000
 20
0.0000
 30
0.0000
 40
0.0000
 41
0.0000
 70
1
  0
VERTEX
  8
0
 10
-0.5000
 20
-0.2071
 30
0.0000
  0
VERTEX
  8
0
 10
-0.5000
 20
0.2071
 30
0.0000
  0
VERTEX
  8
0
 10
-0.2071
 20
0.5000
 30
0.0000
  0
VERTEX
  8
0
 10
0.2071
 20
0.5000
 30
0.0000
  0
VERTEX
  8
0
 10
0.5000
 20
0.2071
 30
0.0000
  0
VERTEX
  8
0
 10
0.5000
 20
-0.2071
 30
0.0000
  0
VERTEX
  8
0
 10
0.2071
 20
-0.5000
 30
0.0000
  0
VERTEX
  8
0
 10
-0.2071
 20
-0.5000
 30
0.0000
  0
SEQEND
  8
0
  0
ENDBLK
  8
0
  0
BLOCK
  8
0
  2
SQUAREV
 70
64
 10
0.0000
 20
0.0000
 30
0.0000
  3
SQUAREV
  0
SOLID
  8
0
 10
-0.5000
 20
-0.5000
 30
0.0000
 11
0.5000
 21
-0.5000
 31
0.0000
 12
-0.5000
 22
0.5000
 32
0.0000
 13
0.5000
 23
0.5000
 33
0.0000
  0
ENDBLK
  8
0
  0
BLOCK
  8
0
  2
ROUNDV
 70
64
 10
0.0000
 20
0.0000
 30
0.0000
  3
ROUNDV
  0
CIRCLE
  8
0
 10
0.0000
 20
0.0000
 30
0.0000
 40
0.5000
  0
ENDBLK
  8
0
  0
BLOCK
  8
0
  2
ANNULUSV
 70
64
 10
0.0000
 20
0.0000
 30
0.0000
  3
ANNULUSV
  0
CIRCLE
  8
0
 10
0.0000
 20
0.0000
 30
0.0000
 40
0.5000
  0
ENDBLK
  8
0
  0
BLOCK
  8
0
  2
THERMALV
 70
64
 10
0.0000
 20
0.0000
 30
0.0000
  3
THERMALV
  0
POLYLINE
  8
0
 66
1
 10
0.0000
 20
0.0000
 30
0.0000
 40
0.0000
 41
0.0000
 70
1
  0
VERTEX
  8
0
 10
-0.2379
 20
0.4000
 30
0.0000
  0
VERTEX
  8
0
 10
0.2379
 20
0.4000
 30
0.0000
 42
1.0000
  0
VERTEX
  8
0
 10
0.2379
 20
0.5000
 30
0.0000
  0
VERTEX
  8
0
 10
-0.2379
 20
0.5000
 30
0.0000
 42
1.0000
  0
SEQEND
  8
0
  0
POLYLINE
  8
0
 66
1
 10
0.0000
 20
0.0000
 30
0.0000
 40
0.0000
 41
0.0000
 70
1
  0
VERTEX
  8
0
 10
0.4000
 20
0.2379
 30
0.0000
  0
VERTEX
  8
0
 10
0.4000
 20
-0.2379
 30
0.0000
 42
1.0000
  0
VERTEX
  8
0
 10
0.5000
 20
-0.2379
 30
0.0000
  0
VERTEX
  8
0
 10
0.5000
 20
0.2379
 30
0.0000
 42
1.0000
  0
SEQEND
  8
0
  0
POLYLINE
  8
0
 66
1
 10
0.0000
 20
0.0000
 30
0.0000
 40
0.0000
 41
0.0000
 70
1
  0
VERTEX
  8
0
 10
0.2379
 20
-0.4000
 30
0.0000
  0
VERTEX
  8
0
 10
-0.2379
 20
-0.4000
 30
0.0000
 42
1.0000
  0
VERTEX
  8
0
 10
-0.2379
 20
-0.5000
 30
0.0000
  0
VERTEX
  8
0
 10
0.2379
 20
-0.5000
 30
0.0000
 42
1.0000
  0
SEQEND
  8
0
  0
POLYLINE
  8
0
 66
1
 10
0.0000
 20
0.0000
 30
0.0000
 40
0.0000
 41
0.0000
 70
1
  0
VERTEX
  8
0
 10
-0.4000
 20
-0.2379
 30
0.0000
  0
VERTEX
  8
0
 10
-0.4000
 20
0.2379
 30
0.0000
 42
1.0000
  0
VERTEX
  8
0
 10
-0.5000
 20
0.2379
 30
0.0000
  0
VERTEX
  8
0
 10
-0.5000
 20
-0.2379
 30
0.0000
 42
1.0000
  0
SEQEND
  8
0
  0
ENDBLK
  8
0
  0
BLOCK
  8
0
  2
LONGP100
 70
64
 10
0.0000
 20
0.0000
 30
0.0000
  3
LONGP100
  0
POLYLINE
  8
0
 66
1
 10
0.0000
 20
0.0000
 30
0.0000
 40
0.0000
 41
0.0000
 70
1
  0
VERTEX
  8
0
 10
-0.5000
 20
-0.5000
 30
0.0000
  0
VERTEX
  8
0
 10
0.5000
 20
-0.5000
 30
0.0000
 42
1.0000
  0
VERTEX
  8
0
 10
0.5000
 20
0.5000
 30
0.0000
  0
VERTEX
  8
0
 10
-0.5000
 20
0.5000
 30
0.0000
 42
1.0000
  0
SEQEND
  8
0
  0
ENDBLK
  8
0
  0
ENDSEC
  0
SECTION
  2
ENTITIES
  0
POLYLINE
  8
20
 66
1
 10
0.0000
 20
0.0000
 30
0.0000
 40
0.0000
 41
0.0000
 70
1
  0
VERTEX
  8
20
 10
7.0259
 20
11.1434
 30
0.0000
  0
VERTEX
  8
20
 10
7.0259
 20
55.1434
 30
0.0000
 42
1.0000
  0
VERTEX
  8
20
 10
7.0249
 20
55.1434
 30
0.0000
  0
VERTEX
  8
20
 10
7.0249
 20
11.1434
 30
0.0000
 42
1.0000
  0
SEQEND
  8
0
  0
POLYLINE
  8
20
 66
1
 10
0.0000
 20
0.0000
 30
0.0000
 40
0.0000
 41
0.0000
 70
1
  0
VERTEX
  8
20
 10
7.0257
 20
55.1430
 30
0.0000
  0
VERTEX
  8
20
 10
9.0257
 20
57.1430
 30
0.0000
 42
1.0000
  0
VERTEX
  8
20
 10
9.0250
 20
57.1437
 30
0.0000
  0
VERTEX
  8
20
 10
7.0250
 20
55.1437
 30
0.0000
 42
1.0000
  0
SEQEND
  8
0
  0
POLYLINE
  8
20
 66
1
 10
0.0000
 20
0.0000
 30
0.0000
 40
0.0000
 41
0.0000
 70
1
  0
VERTEX
  8
20
 10
9.0254
 20
57.1429
 30
0.0000
  0
VERTEX
  8
20
 10
66.9207
 20
57.1429
 30
0.0000
 42
1.0000
  0
VERTEX
  8
20
 10
66.9207
 20
57.1439
 30
0.0000
  0
VERTEX
  8
20
 10
9.0254
 20
57.1439
 30
0.0000
 42
1.0000
  0
SEQEND
  8
0
  0
POLYLINE
  8
20
 66
1
 10
0.0000
 20
0.0000
 30
0.0000
 40
0.0000
 41
0.0000
 70
1
  0
VERTEX
  8
20
 10
66.9203
 20
57.1430
 30
0.0000
  0
VERTEX
  8
20
 10
68.9203
 20
55.1430
 30
0.0000
 42
1.0000
  0
VERTEX
  8
20
 10
68.9211
 20
55.1437
 30
0.0000
  0
VERTEX
  8
20
 10
66.9211
 20
57.1437
 30
0.0000
 42
1.0000
  0
SEQEND
  8
0
  0
POLYLINE
  8
20
 66
1
 10
0.0000
 20
0.0000
 30
0.0000
 40
0.0000
 41
0.0000
 70
1
  0
VERTEX
  8
20
 10
68.9202
 20
55.1434
 30
0.0000
  0
VERTEX
  8
20
 10
68.9202
 20
11.1434
 30
0.0000
 42
1.0000
  0
VERTEX
  8
20
 10
68.9212
 20
11.1434
 30
0.0000
  0
VERTEX
  8
20
 10
68.9212
 20
55.1434
 30
0.0000
 42
1.0000
  0
SEQEND
  8
0
  0
POLYLINE
  8
20
 66
1
 10
0.0000
 20
0.0000
 30
0.0000
 40
0.0000
 41
0.0000
 70
1
  0
VERTEX
  8
20
 10
68.9203
 20
11.1437
 30
0.0000
  0
VERTEX
  8
20
 10
66.9203
 20
9.1437
 30
0.0000
 42
1.0000
  0
VERTEX
  8
20
 10
66.9211
 20
9.1430
 30
0.0000
  0
VERTEX
  8
20
 10
68.9211
 20
11.1430
 30
0.0000
 42
1.0000
  0
SEQEND
  8
0
  0
POLYLINE
  8
20
 66
1
 10
0.0000
 20
0.0000
 30
0.0000
 40
0.0000
 41
0.0000
 70
1
  0
VERTEX
  8
20
 10
66.9207
 20
9.1439
 30
0.0000
  0
VERTEX
  8
20
 10
9.0254
 20
9.1439
 30
0.0000
 42
1.0000
  0
VERTEX
  8
20
 10
9.0254
 20
9.1429
 30
0.0000
  0
VERTEX
  8
20
 10
66.9207
 20
9.1429
 30
0.0000
 42
1.0000
  0
SEQEND
  8
0
  0
POLYLINE
  8
20
 66
1
 10
0.0000
 20
0.0000
 30
0.0000
 40
0.0000
 41
0.0000
 70
1
  0
VERTEX
  8
20
 10
9.0257
 20
9.1437
 30
0.0000
  0
VERTEX
  8
20
 10
7.0257
 20
11.1437
 30
0.0000
 42
1.0000
  0
VERTEX
  8
20
 10
7.0250
 20
11.1430
 30
0.0000
  0
VERTEX
  8
20
 10
9.0250
 20
9.1430
 30
0.0000
 42
1.0000
  0
SEQEND
  8
0
  0
CIRCLE
  8
20
 10
65.3207
 20
12.7434
 30
0.0000
 40
1.5995
  0
CIRCLE
  8
20
 10
65.3207
 20
12.7434
 30
0.0000
 40
1.6005
  0
CIRCLE
  8
20
 10
10.6254
 20
12.7434
 30
0.0000
 40
1.5995
  0
CIRCLE
  8
20
 10
10.6254
 20
12.7434
 30
0.0000
 40
1.6005
  0
CIRCLE
  8
20
 10
10.6254
 20
53.5434
 30
0.0000
 40
1.5995
  0
CIRCLE
  8
20
 10
10.6254
 20
53.5434
 30
0.0000
 40
1.6005
  0
CIRCLE
  8
20
 10
65.3207
 20
53.5434
 30
0.0000
 40
1.5995
  0
CIRCLE
  8
20
 10
65.3207
 20
53.5434
 30
0.0000
 40
1.6005
  0
INSERT
  8
17
  2
SQUAREP
 10
57.3278
 20
13.9700
 30
0.0000
 41
2.0320
 42
2.0320
 43
1.0000
 50
180.0000
  0
CIRCLE
  8
44
 10
57.3278
 20
13.9700
 30
0.0000
 40
0.6000
  0
INSERT
  8
17
  2
ROUNDP
 10
53.4722
 20
13.9700
 30
0.0000
 41
2.0320
 42
2.0320
 43
1.0000
 50
180.0000
  0
CIRCLE
  8
44
 10
53.4722
 20
13.9700
 30
0.0000
 40
0.6000
  0
INSERT
  8
17
  2
LONGP100
 10
22.8600
 20
13.9700
 30
0.0000
 41
1.8796
 42
1.8796
 43
1.0000
 50
270.0000
  0
CIRCLE
  8
44
 10
22.8600
 20
13.9700
 30
0.0000
 40
0.5588
  0
INSERT
  8
17
  2
LONGP100
 10
20.3200
 20
13.9700
 30
0.0000
 41
1.8796
 42
1.8796
 43
1.0000
 50
270.0000
  0
CIRCLE
  8
44
 10
20.3200
 20
13.9700
 30
0.0000
 40
0.5588
  0
INSERT
  8
17
  2
LONGP100
 10
17.7800
 20
13.9700
 30
0.0000
 41
1.8796
 42
1.8796
 43
1.0000
 50
270.0000
  0
CIRCLE
  8
44
 10
17.7800
 20
13.9700
 30
0.0000
 40
0.5588
  0
INSERT
  8
17
  2
SQUAREP
 10
58.5978
 20
52.0700
 30
0.0000
 41
2.0320
 42
2.0320
 43
1.0000
 50
180.0000
  0
CIRCLE
  8
44
 10
58.5978
 20
52.0700
 30
0.0000
 40
0.6000
  0
INSERT
  8
17
  2
ROUNDP
 10
54.7422
 20
52.0700
 30
0.0000
 41
2.0320
 42
2.0320
 43
1.0000
 50
180.0000
  0
CIRCLE
  8
44
 10
54.7422
 20
52.0700
 30
0.0000
 40
0.6000
  0
INSERT
  8
17
  2
SQUAREP
 10
35.7378
 20
53.3400
 30
0.0000
 41
2.0320
 42
2.0320
 43
1.0000
 50
180.0000
  0
CIRCLE
  8
44
 10
35.7378
 20
53.3400
 30
0.0000
 40
0.6000
  0
INSERT
  8
17
  2
ROUNDP
 10
31.8822
 20
53.3400
 30
0.0000
 41
2.0320
 42
2.0320
 43
1.0000
 50
180.0000
  0
CIRCLE
  8
44
 10
31.8822
 20
53.3400
 30
0.0000
 40
0.6000
  0
INSERT
  8
17
  2
SQUAREP
 10
31.5722
 20
17.1450
 30
0.0000
 41
2.0320
 42
2.0320
 43
1.0000
 50
0.0000
  0
CIRCLE
  8
44
 10
31.5722
 20
17.1450
 30
0.0000
 40
0.6000
  0
INSERT
  8
17
  2
ROUNDP
 10
35.4278
 20
17.1450
 30
0.0000
 41
2.0320
 42
2.0320
 43
1.0000
 50
0.0000
  0
CIRCLE
  8
44
 10
35.4278
 20
17.1450
 30
0.0000
 40
0.6000
  0
INSERT
  8
17
  2
LONGP100
 10
58.4200
 20
31.7500
 30
0.0000
 41
1.5240
 42
1.5240
 43
1.0000
 50
0.0000
  0
CIRCLE
  8
44
 10
58.4200
 20
31.7500
 30
0.0000
 40
0.5080
  0
INSERT
  8
17
  2
LONGP100
 10
58.4200
 20
34.2900
 30
0.0000
 41
1.5240
 42
1.5240
 43
1.0000
 50
0.0000
  0
CIRCLE
  8
44
 10
58.4200
 20
34.2900
 30
0.0000
 40
0.5080
  0
INSERT
  8
17
  2
LONGP100
 10
58.4200
 20
29.2100
 30
0.0000
 41
1.5240
 42
1.5240
 43
1.0000
 50
0.0000
  0
CIRCLE
  8
44
 10
58.4200
 20
29.2100
 30
0.0000
 40
0.5080
  0
INSERT
  8
17
  2
LONGP100
 10
16.5100
 20
30.4800
 30
0.0000
 41
1.3080
 42
1.3080
 43
1.0000
 50
270.0000
  0
CIRCLE
  8
44
 10
16.5100
 20
30.4800
 30
0.0000
 40
0.4000
  0
INSERT
  8
17
  2
LONGP100
 10
41.9100
 20
30.4800
 30
0.0000
 41
1.3080
 42
1.3080
 43
1.0000
 50
90.0000
  0
CIRCLE
  8
44
 10
41.9100
 20
30.4800
 30
0.0000
 40
0.4000
  0
INSERT
  8
17
  2
LONGP100
 10
21.5900
 20
30.4800
 30
0.0000
 41
1.3080
 42
1.3080
 43
1.0000
 50
90.0000
  0
CIRCLE
  8
44
 10
21.5900
 20
30.4800
 30
0.0000
 40
0.4000
  0
INSERT
  8
17
  2
LONGP100
 10
24.1300
 20
30.4800
 30
0.0000
 41
1.3080
 42
1.3080
 43
1.0000
 50
90.0000
  0
CIRCLE
  8
44
 10
24.1300
 20
30.4800
 30
0.0000
 40
0.4000
  0
INSERT
  8
17
  2
LONGP100
 10
26.6700
 20
30.4800
 30
0.0000
 41
1.3080
 42
1.3080
 43
1.0000
 50
90.0000
  0
CIRCLE
  8
44
 10
26.6700
 20
30.4800
 30
0.0000
 40
0.4000
  0
INSERT
  8
17
  2
LONGP100
 10
29.2100
 20
30.4800
 30
0.0000
 41
1.3080
 42
1.3080
 43
1.0000
 50
90.0000
  0
CIRCLE
  8
44
 10
29.2100
 20
30.4800
 30
0.0000
 40
0.4000
  0
INSERT
  8
17
  2
LONGP100
 10
31.7500
 20
30.4800
 30
0.0000
 41
1.3080
 42
1.3080
 43
1.0000
 50
270.0000
  0
CIRCLE
  8
44
 10
31.7500
 20
30.4800
 30
0.0000
 40
0.4000
  0
INSERT
  8
17
  2
LONGP100
 10
34.2900
 20
30.4800
 30
0.0000
 41
1.3080
 42
1.3080
 43
1.0000
 50
270.0000
  0
CIRCLE
  8
44
 10
34.2900
 20
30.4800
 30
0.0000
 40
0.4000
  0
INSERT
  8
17
  2
LONGP100
 10
36.8300
 20
30.4800
 30
0.0000
 41
1.3080
 42
1.3080
 43
1.0000
 50
270.0000
  0
CIRCLE
  8
44
 10
36.8300
 20
30.4800
 30
0.0000
 40
0.4000
  0
INSERT
  8
17
  2
LONGP100
 10
39.3700
 20
30.4800
 30
0.0000
 41
1.3080
 42
1.3080
 43
1.0000
 50
270.0000
  0
CIRCLE
  8
44
 10
39.3700
 20
30.4800
 30
0.0000
 40
0.4000
  0
INSERT
  8
17
  2
LONGP100
 10
19.0500
 20
30.4800
 30
0.0000
 41
1.3080
 42
1.3080
 43
1.0000
 50
270.0000
  0
CIRCLE
  8
44
 10
19.0500
 20
30.4800
 30
0.0000
 40
0.4000
  0
INSERT
  8
17
  2
LONGP100
 10
39.3700
 20
45.7200
 30
0.0000
 41
1.3080
 42
1.3080
 43
1.0000
 50
90.0000
  0
CIRCLE
  8
44
 10
39.3700
 20
45.7200
 30
0.0000
 40
0.4000
  0
INSERT
  8
17
  2
LONGP100
 10
36.8300
 20
45.7200
 30
0.0000
 41
1.3080
 42
1.3080
 43
1.0000
 50
90.0000
  0
CIRCLE
  8
44
 10
36.8300
 20
45.7200
 30
0.0000
 40
0.4000
  0
INSERT
  8
17
  2
LONGP100
 10
34.2900
 20
45.7200
 30
0.0000
 41
1.3080
 42
1.3080
 43
1.0000
 50
90.0000
  0
CIRCLE
  8
44
 10
34.2900
 20
45.7200
 30
0.0000
 40
0.4000
  0
INSERT
  8
17
  2
LONGP100
 10
31.7500
 20
45.7200
 30
0.0000
 41
1.3080
 42
1.3080
 43
1.0000
 50
90.0000
  0
CIRCLE
  8
44
 10
31.7500
 20
45.7200
 30
0.0000
 40
0.4000
  0
INSERT
  8
17
  2
LONGP100
 10
29.2100
 20
45.7200
 30
0.0000
 41
1.3080
 42
1.3080
 43
1.0000
 50
90.0000
  0
CIRCLE
  8
44
 10
29.2100
 20
45.7200
 30
0.0000
 40
0.4000
  0
INSERT
  8
17
  2
LONGP100
 10
26.6700
 20
45.7200
 30
0.0000
 41
1.3080
 42
1.3080
 43
1.0000
 50
90.0000
  0
CIRCLE
  8
44
 10
26.6700
 20
45.7200
 30
0.0000
 40
0.4000
  0
INSERT
  8
17
  2
LONGP100
 10
24.1300
 20
45.7200
 30
0.0000
 41
1.3080
 42
1.3080
 43
1.0000
 50
90.0000
  0
CIRCLE
  8
44
 10
24.1300
 20
45.7200
 30
0.0000
 40
0.4000
  0
INSERT
  8
17
  2
LONGP100
 10
21.5900
 20
45.7200
 30
0.0000
 41
1.3080
 42
1.3080
 43
1.0000
 50
90.0000
  0
CIRCLE
  8
44
 10
21.5900
 20
45.7200
 30
0.0000
 40
0.4000
  0
INSERT
  8
17
  2
LONGP100
 10
19.0500
 20
45.7200
 30
0.0000
 41
1.3080
 42
1.3080
 43
1.0000
 50
90.0000
  0
CIRCLE
  8
44
 10
19.0500
 20
45.7200
 30
0.0000
 40
0.4000
  0
INSERT
  8
17
  2
LONGP100
 10
16.5100
 20
45.7200
 30
0.0000
 41
1.3080
 42
1.3080
 43
1.0000
 50
90.0000
  0
CIRCLE
  8
44
 10
16.5100
 20
45.7200
 30
0.0000
 40
0.4000
  0
INSERT
  8
17
  2
LONGP100
 10
13.9700
 20
45.7200
 30
0.0000
 41
1.3080
 42
1.3080
 43
1.0000
 50
90.0000
  0
CIRCLE
  8
44
 10
13.9700
 20
45.7200
 30
0.0000
 40
0.4000
  0
INSERT
  8
17
  2
LONGP100
 10
13.9700
 20
30.4800
 30
0.0000
 41
1.3080
 42
1.3080
 43
1.0000
 50
90.0000
  0
CIRCLE
  8
44
 10
13.9700
 20
30.4800
 30
0.0000
 40
0.4000
  0
INSERT
  8
17
  2
LONGP100
 10
46.9900
 20
30.4800
 30
0.0000
 41
1.3080
 42
1.3080
 43
1.0000
 50
90.0000
  0
CIRCLE
  8
44
 10
46.9900
 20
30.4800
 30
0.0000
 40
0.4000
  0
INSERT
  8
17
  2
LONGP100
 10
41.9100
 20
45.7200
 30
0.0000
 41
1.3080
 42
1.3080
 43
1.0000
 50
90.0000
  0
CIRCLE
  8
44
 10
41.9100
 20
45.7200
 30
0.0000
 40
0.4000
  0
INSERT
  8
17
  2
ROUNDP
 10
50.8000
 20
35.5600
 30
0.0000
 41
1.3080
 42
1.3080
 43
1.0000
 50
180.0000
  0
CIRCLE
  8
44
 10
50.8000
 20
35.5600
 30
0.0000
 40
0.4000
  0
INSERT
  8
17
  2
ROUNDP
 10
48.2600
 20
35.5600
 30
0.0000
 41
1.3080
 42
1.3080
 43
1.0000
 50
180.0000
  0
CIRCLE
  8
44
 10
48.2600
 20
35.5600
 30
0.0000
 40
0.4000
  0
INSERT
  8
17
  2
ROUNDP
 10
50.8000
 20
38.1000
 30
0.0000
 41
1.3080
 42
1.3080
 43
1.0000
 50
180.0000
  0
CIRCLE
  8
44
 10
50.8000
 20
38.1000
 30
0.0000
 40
0.4000
  0
INSERT
  8
17
  2
ROUNDP
 10
48.2600
 20
38.1000
 30
0.0000
 41
1.3080
 42
1.3080
 43
1.0000
 50
180.0000
  0
CIRCLE
  8
44
 10
48.2600
 20
38.1000
 30
0.0000
 40
0.4000
  0
INSERT
  8
17
  2
ROUNDP
 10
50.8000
 20
40.6400
 30
0.0000
 41
1.3080
 42
1.3080
 43
1.0000
 50
180.0000
  0
CIRCLE
  8
44
 10
50.8000
 20
40.6400
 30
0.0000
 40
0.4000
  0
INSERT
  8
17
  2
ROUNDP
 10
48.2600
 20
40.6400
 30
0.0000
 41
1.3080
 42
1.3080
 43
1.0000
 50
180.0000
  0
CIRCLE
  8
44
 10
48.2600
 20
40.6400
 30
0.0000
 40
0.4000
  0
INSERT
  8
17
  2
LONGP100
 10
49.5300
 20
30.4800
 30
0.0000
 41
1.3080
 42
1.3080
 43
1.0000
 50
90.0000
  0
CIRCLE
  8
44
 10
49.5300
 20
30.4800
 30
0.0000
 40
0.4000
  0
INSERT
  8
17
  2
LONGP100
 10
44.4500
 20
30.4800
 30
0.0000
 41
1.3080
 42
1.3080
 43
1.0000
 50
90.0000
  0
CIRCLE
  8
44
 10
44.4500
 20
30.4800
 30
0.0000
 40
0.4000
  0
INSERT
  8
17
  2
LONGP100
 10
44.4500
 20
45.7200
 30
0.0000
 41
1.3080
 42
1.3080
 43
1.0000
 50
90.0000
  0
CIRCLE
  8
44
 10
44.4500
 20
45.7200
 30
0.0000
 40
0.4000
  0
INSERT
  8
17
  2
LONGP100
 10
46.9900
 20
45.7200
 30
0.0000
 41
1.3080
 42
1.3080
 43
1.0000
 50
90.0000
  0
CIRCLE
  8
44
 10
46.9900
 20
45.7200
 30
0.0000
 40
0.4000
  0
INSERT
  8
17
  2
LONGP100
 10
49.5300
 20
45.7200
 30
0.0000
 41
1.3080
 42
1.3080
 43
1.0000
 50
90.0000
  0
CIRCLE
  8
44
 10
49.5300
 20
45.7200
 30
0.0000
 40
0.4000
  0
POLYLINE
  8
16
 66
1
 10
0.0000
 20
0.0000
 30
0.0000
 40
0.0000
 41
0.0000
 70
1
  0
VERTEX
  8
16
 10
17.6276
 20
13.9700
 30
0.0000
  0
VERTEX
  8
16
 10
17.6276
 20
11.4300
 30
0.0000
 42
1.0000
  0
VERTEX
  8
16
 10
17.9324
 20
11.4300
 30
0.0000
  0
VERTEX
  8
16
 10
17.9324
 20
13.9700
 30
0.0000
 42
1.0000
  0
SEQEND
  8
0
  0
POLYLINE
  8
16
 66
1
 10
0.0000
 20
0.0000
 30
0.0000
 40
0.0000
 41
0.0000
 70
1
  0
VERTEX
  8
16
 10
17.6722
 20
11.3222
 30
0.0000
  0
VERTEX
  8
16
 10
18.3072
 20
10.6872
 30
0.0000
 42
1.0000
  0
VERTEX
  8
16
 10
18.5228
 20
10.9028
 30
0.0000
  0
VERTEX
  8
16
 10
17.8878
 20
11.5378
 30
0.0000
 42
1.0000
  0
SEQEND
  8
0
  0
POLYLINE
  8
16
 66
1
 10
0.0000
 20
0.0000
 30
0.0000
 40
0.0000
 41
0.0000
 70
1
  0
VERTEX
  8
16
 10
53.6246
 20
12.1972
 30
0.0000
  0
VERTEX
  8
16
 10
53.6246
 20
13.9700
 30
0.0000
 42
1.0000
  0
VERTEX
  8
16
 10
53.3198
 20
13.9700
 30
0.0000
  0
VERTEX
  8
16
 10
53.3198
 20
12.1972
 30
0.0000
 42
1.0000
  0
SEQEND
  8
0
  0
POLYLINE
  8
16
 66
1
 10
0.0000
 20
0.0000
 30
0.0000
 40
0.0000
 41
0.0000
 70
1
  0
VERTEX
  8
16
 10
18.4150
 20
10.6426
 30
0.0000
  0
VERTEX
  8
16
 10
52.0700
 20
10.6426
 30
0.0000
 42
1.0000
  0
VERTEX
  8
16
 10
52.0700
 20
10.9474
 30
0.0000
  0
VERTEX
  8
16
 10
18.4150
 20
10.9474
 30
0.0000
 42
1.0000
  0
SEQEND
  8
0
  0
POLYLINE
  8
16
 66
1
 10
0.0000
 20
0.0000
 30
0.0000
 40
0.0000
 41
0.0000
 70
1
  0
VERTEX
  8
16
 10
52.1778
 20
10.6872
 30
0.0000
  0
VERTEX
  8
16
 10
53.5800
 20
12.0894
 30
0.0000
 42
1.0000
  0
VERTEX
  8
16
 10
53.3644
 20
12.3050
 30
0.0000
  0
VERTEX
  8
16
 10
51.9622
 20
10.9028
 30
0.0000
 42
1.0000
  0
SEQEND
  8
0
  0
POLYLINE
  8
16
 66
1
 10
0.0000
 20
0.0000
 30
0.0000
 40
0.0000
 41
0.0000
 70
1
  0
VERTEX
  8
16
 10
46.8376
 20
30.4800
 30
0.0000
  0
VERTEX
  8
16
 10
46.8376
 20
17.1450
 30
0.0000
 42
1.0000
  0
VERTEX
  8
16
 10
47.1424
 20
17.1450
 30
0.0000
  0
VERTEX
  8
16
 10
47.1424
 20
30.4800
 30
0.0000
 42
1.0000
  0
SEQEND
  8
0
  0
POLYLINE
  8
16
 66
1
 10
0.0000
 20
0.0000
 30
0.0000
 40
0.0000
 41
0.0000
 70
1
  0
VERTEX
  8
16
 10
46.8822
 20
17.0372
 30
0.0000
  0
VERTEX
  8
16
 10
50.0572
 20
13.8622
 30
0.0000
 42
1.0000
  0
VERTEX
  8
16
 10
50.2728
 20
14.0778
 30
0.0000
  0
VERTEX
  8
16
 10
47.0978
 20
17.2528
 30
0.0000
 42
1.0000
  0
SEQEND
  8
0
  0
POLYLINE
  8
16
 66
1
 10
0.0000
 20
0.0000
 30
0.0000
 40
0.0000
 41
0.0000
 70
1
  0
VERTEX
  8
16
 10
50.1650
 20
13.8176
 30
0.0000
  0
VERTEX
  8
16
 10
53.4722
 20
13.8176
 30
0.0000
 42
1.0000
  0
VERTEX
  8
16
 10
53.4722
 20
14.1224
 30
0.0000
  0
VERTEX
  8
16
 10
50.1650
 20
14.1224
 30
0.0000
 42
1.0000
  0
SEQEND
  8
0
  0
POLYLINE
  8
16
 66
1
 10
0.0000
 20
0.0000
 30
0.0000
 40
0.0000
 41
0.0000
 70
1
  0
VERTEX
  8
16
 10
54.8946
 20
52.0700
 30
0.0000
  0
VERTEX
  8
16
 10
54.8946
 20
54.1072
 30
0.0000
 42
1.0000
  0
VERTEX
  8
16
 10
54.5898
 20
54.1072
 30
0.0000
  0
VERTEX
  8
16
 10
54.5898
 20
52.0700
 30
0.0000
 42
1.0000
  0
SEQEND
  8
0
  0
POLYLINE
  8
16
 66
1
 10
0.0000
 20
0.0000
 30
0.0000
 40
0.0000
 41
0.0000
 70
1
  0
VERTEX
  8
16
 10
54.8500
 20
53.9994
 30
0.0000
  0
VERTEX
  8
16
 10
55.9878
 20
55.1372
 30
0.0000
 42
1.0000
  0
VERTEX
  8
16
 10
55.7722
 20
55.3528
 30
0.0000
  0
VERTEX
  8
16
 10
54.6344
 20
54.2150
 30
0.0000
 42
1.0000
  0
SEQEND
  8
0
  0
POLYLINE
  8
16
 66
1
 10
0.0000
 20
0.0000
 30
0.0000
 40
0.0000
 41
0.0000
 70
1
  0
VERTEX
  8
16
 10
55.8800
 20
55.0926
 30
0.0000
  0
VERTEX
  8
16
 10
59.6900
 20
55.0926
 30
0.0000
 42
1.0000
  0
VERTEX
  8
16
 10
59.6900
 20
55.3974
 30
0.0000
  0
VERTEX
  8
16
 10
55.8800
 20
55.3974
 30
0.0000
 42
1.0000
  0
SEQEND
  8
0
  0
POLYLINE
  8
16
 66
1
 10
0.0000
 20
0.0000
 30
0.0000
 40
0.0000
 41
0.0000
 70
1
  0
VERTEX
  8
16
 10
66.5226
 20
48.2600
 30
0.0000
  0
VERTEX
  8
16
 10
66.5226
 20
18.4150
 30
0.0000
 42
1.0000
  0
VERTEX
  8
16
 10
66.8274
 20
18.4150
 30
0.0000
  0
VERTEX
  8
16
 10
66.8274
 20
48.2600
 30
0.0000
 42
1.0000
  0
SEQEND
  8
0
  0
POLYLINE
  8
16
 66
1
 10
0.0000
 20
0.0000
 30
0.0000
 40
0.0000
 41
0.0000
 70
1
  0
VERTEX
  8
16
 10
66.5672
 20
18.5228
 30
0.0000
  0
VERTEX
  8
16
 10
58.9472
 20
10.9028
 30
0.0000
 42
1.0000
  0
VERTEX
  8
16
 10
59.1628
 20
10.6872
 30
0.0000
  0
VERTEX
  8
16
 10
66.7828
 20
18.3072
 30
0.0000
 42
1.0000
  0
SEQEND
  8
0
  0
POLYLINE
  8
16
 66
1
 10
0.0000
 20
0.0000
 30
0.0000
 40
0.0000
 41
0.0000
 70
1
  0
VERTEX
  8
16
 10
59.0550
 20
10.9474
 30
0.0000
  0
VERTEX
  8
16
 10
54.6100
 20
10.9474
 30
0.0000
 42
1.0000
  0
VERTEX
  8
16
 10
54.6100
 20
10.6426
 30
0.0000
  0
VERTEX
  8
16
 10
59.0550
 20
10.6426
 30
0.0000
 42
1.0000
  0
SEQEND
  8
0
  0
POLYLINE
  8
16
 66
1
 10
0.0000
 20
0.0000
 30
0.0000
 40
0.0000
 41
0.0000
 70
1
  0
VERTEX
  8
16
 10
54.7178
 20
10.9028
 30
0.0000
  0
VERTEX
  8
16
 10
53.5800
 20
12.0406
 30
0.0000
 42
1.0000
  0
VERTEX
  8
16
 10
53.3644
 20
11.8250
 30
0.0000
  0
VERTEX
  8
16
 10
54.5022
 20
10.6872
 30
0.0000
 42
1.0000
  0
SEQEND
  8
0
  0
POLYLINE
  8
16
 66
1
 10
0.0000
 20
0.0000
 30
0.0000
 40
0.0000
 41
0.0000
 70
1
  0
VERTEX
  8
16
 10
53.6246
 20
11.9328
 30
0.0000
  0
VERTEX
  8
16
 10
53.6246
 20
12.1972
 30
0.0000
 42
1.0000
  0
VERTEX
  8
16
 10
53.3198
 20
12.1972
 30
0.0000
  0
VERTEX
  8
16
 10
53.3198
 20
11.9328
 30
0.0000
 42
1.0000
  0
SEQEND
  8
0
  0
POLYLINE
  8
16
 66
1
 10
0.0000
 20
0.0000
 30
0.0000
 40
0.0000
 41
0.0000
 70
1
  0
VERTEX
  8
16
 10
59.5822
 20
55.1372
 30
0.0000
  0
VERTEX
  8
16
 10
66.5672
 20
48.1522
 30
0.0000
 42
1.0000
  0
VERTEX
  8
16
 10
66.7828
 20
48.3678
 30
0.0000
  0
VERTEX
  8
16
 10
59.7978
 20
55.3528
 30
0.0000
 42
1.0000
  0
SEQEND
  8
0
  0
POLYLINE
  8
16
 66
1
 10
0.0000
 20
0.0000
 30
0.0000
 40
0.0000
 41
0.0000
 70
1
  0
VERTEX
  8
16
 10
22.8600
 20
13.3350
 30
0.0000
  0
VERTEX
  8
16
 10
40.0050
 20
13.3350
 30
0.0000
 42
1.0000
  0
VERTEX
  8
16
 10
40.0050
 20
14.6050
 30
0.0000
  0
VERTEX
  8
16
 10
22.8600
 20
14.6050
 30
0.0000
 42
1.0000
  0
SEQEND
  8
0
  0
POLYLINE
  8
16
 66
1
 10
0.0000
 20
0.0000
 30
0.0000
 40
0.0000
 41
0.0000
 70
1
  0
VERTEX
  8
16
 10
40.4540
 20
13.5210
 30
0.0000
  0
VERTEX
  8
16
 10
42.3590
 20
15.4260
 30
0.0000
 42
1.0000
  0
VERTEX
  8
16
 10
41.4610
 20
16.3240
 30
0.0000
  0
VERTEX
  8
16
 10
39.5560
 20
14.4190
 30
0.0000
 42
1.0000
  0
SEQEND
  8
0
  0
POLYLINE
  8
16
 66
1
 10
0.0000
 20
0.0000
 30
0.0000
 40
0.0000
 41
0.0000
 70
1
  0
VERTEX
  8
16
 10
42.5450
 20
15.8750
 30
0.0000
  0
VERTEX
  8
16
 10
42.5450
 20
30.4800
 30
0.0000
 42
1.0000
  0
VERTEX
  8
16
 10
41.2750
 20
30.4800
 30
0.0000
  0
VERTEX
  8
16
 10
41.2750
 20
15.8750
 30
0.0000
 42
1.0000
  0
SEQEND
  8
0
  0
POLYLINE
  8
16
 66
1
 10
0.0000
 20
0.0000
 30
0.0000
 40
0.0000
 41
0.0000
 70
1
  0
VERTEX
  8
16
 10
58.4200
 20
34.9250
 30
0.0000
  0
VERTEX
  8
16
 10
46.9900
 20
34.9250
 30
0.0000
 42
1.0000
  0
VERTEX
  8
16
 10
46.9900
 20
33.6550
 30
0.0000
  0
VERTEX
  8
16
 10
58.4200
 20
33.6550
 30
0.0000
 42
1.0000
  0
SEQEND
  8
0
  0
POLYLINE
  8
16
 66
1
 10
0.0000
 20
0.0000
 30
0.0000
 40
0.0000
 41
0.0000
 70
1
  0
VERTEX
  8
16
 10
47.4390
 20
34.7390
 30
0.0000
  0
VERTEX
  8
16
 10
39.8190
 20
42.3590
 30
0.0000
 42
1.0000
  0
VERTEX
  8
16
 10
38.9210
 20
41.4610
 30
0.0000
  0
VERTEX
  8
16
 10
46.5410
 20
33.8410
 30
0.0000
 42
1.0000
  0
SEQEND
  8
0
  0
POLYLINE
  8
16
 66
1
 10
0.0000
 20
0.0000
 30
0.0000
 40
0.0000
 41
0.0000
 70
1
  0
VERTEX
  8
16
 10
40.0050
 20
41.9100
 30
0.0000
  0
VERTEX
  8
16
 10
40.0050
 20
45.7200
 30
0.0000
 42
1.0000
  0
VERTEX
  8
16
 10
38.7350
 20
45.7200
 30
0.0000
  0
VERTEX
  8
16
 10
38.7350
 20
41.9100
 30
0.0000
 42
1.0000
  0
SEQEND
  8
0
  0
POLYLINE
  8
16
 66
1
 10
0.0000
 20
0.0000
 30
0.0000
 40
0.0000
 41
0.0000
 70
1
  0
VERTEX
  8
16
 10
58.4200
 20
28.5750
 30
0.0000
  0
VERTEX
  8
16
 10
62.2300
 20
28.5750
 30
0.0000
 42
1.0000
  0
VERTEX
  8
16
 10
62.2300
 20
29.8450
 30
0.0000
  0
VERTEX
  8
16
 10
58.4200
 20
29.8450
 30
0.0000
 42
1.0000
  0
SEQEND
  8
0
  0
POLYLINE
  8
16
 66
1
 10
0.0000
 20
0.0000
 30
0.0000
 40
0.0000
 41
0.0000
 70
1
  0
VERTEX
  8
16
 10
62.6790
 20
28.7610
 30
0.0000
  0
VERTEX
  8
16
 10
63.9490
 20
30.0310
 30
0.0000
 42
1.0000
  0
VERTEX
  8
16
 10
63.0510
 20
30.9290
 30
0.0000
  0
VERTEX
  8
16
 10
61.7810
 20
29.6590
 30
0.0000
 42
1.0000
  0
SEQEND
  8
0
  0
POLYLINE
  8
16
 66
1
 10
0.0000
 20
0.0000
 30
0.0000
 40
0.0000
 41
0.0000
 70
1
  0
VERTEX
  8
16
 10
64.1350
 20
30.4800
 30
0.0000
  0
VERTEX
  8
16
 10
64.1350
 20
47.1678
 30
0.0000
 42
1.0000
  0
VERTEX
  8
16
 10
62.8650
 20
47.1678
 30
0.0000
  0
VERTEX
  8
16
 10
62.8650
 20
30.4800
 30
0.0000
 42
1.0000
  0
SEQEND
  8
0
  0
POLYLINE
  8
16
 66
1
 10
0.0000
 20
0.0000
 30
0.0000
 40
0.0000
 41
0.0000
 70
1
  0
VERTEX
  8
16
 10
63.9490
 20
47.6168
 30
0.0000
  0
VERTEX
  8
16
 10
59.0468
 20
52.5190
 30
0.0000
 42
1.0000
  0
VERTEX
  8
16
 10
58.1488
 20
51.6210
 30
0.0000
  0
VERTEX
  8
16
 10
63.0510
 20
46.7188
 30
0.0000
 42
1.0000
  0
SEQEND
  8
0
  0
POLYLINE
  8
16
 66
1
 10
0.0000
 20
0.0000
 30
0.0000
 40
0.0000
 41
0.0000
 70
1
  0
VERTEX
  8
16
 10
20.9550
 20
13.9700
 30
0.0000
  0
VERTEX
  8
16
 10
20.9550
 20
19.6850
 30
0.0000
 42
1.0000
  0
VERTEX
  8
16
 10
19.6850
 20
19.6850
 30
0.0000
  0
VERTEX
  8
16
 10
19.6850
 20
13.9700
 30
0.0000
 42
1.0000
  0
SEQEND
  8
0
  0
POLYLINE
  8
16
 66
1
 10
0.0000
 20
0.0000
 30
0.0000
 40
0.0000
 41
0.0000
 70
1
  0
VERTEX
  8
16
 10
20.7690
 20
19.2360
 30
0.0000
  0
VERTEX
  8
16
 10
22.0390
 20
20.5060
 30
0.0000
 42
1.0000
  0
VERTEX
  8
16
 10
21.1410
 20
21.4040
 30
0.0000
  0
VERTEX
  8
16
 10
19.8710
 20
20.1340
 30
0.0000
 42
1.0000
  0
SEQEND
  8
0
  0
POLYLINE
  8
16
 66
1
 10
0.0000
 20
0.0000
 30
0.0000
 40
0.0000
 41
0.0000
 70
1
  0
VERTEX
  8
16
 10
22.2250
 20
20.9550
 30
0.0000
  0
VERTEX
  8
16
 10
22.2250
 20
30.4800
 30
0.0000
 42
1.0000
  0
VERTEX
  8
16
 10
20.9550
 20
30.4800
 30
0.0000
  0
VERTEX
  8
16
 10
20.9550
 20
20.9550
 30
0.0000
 42
1.0000
  0
SEQEND
  8
0
  0
POLYLINE
  8
16
 66
1
 10
0.0000
 20
0.0000
 30
0.0000
 40
0.0000
 41
0.0000
 70
1
  0
VERTEX
  8
16
 10
35.8768
 20
17.5940
 30
0.0000
  0
VERTEX
  8
16
 10
34.7390
 20
18.7318
 30
0.0000
 42
1.0000
  0
VERTEX
  8
16
 10
33.8410
 20
17.8338
 30
0.0000
  0
VERTEX
  8
16
 10
34.9788
 20
16.6960
 30
0.0000
 42
1.0000
  0
SEQEND
  8
0
  0
POLYLINE
  8
16
 66
1
 10
0.0000
 20
0.0000
 30
0.0000
 40
0.0000
 41
0.0000
 70
1
  0
VERTEX
  8
16
 10
34.9250
 20
18.2828
 30
0.0000
  0
VERTEX
  8
16
 10
34.9250
 20
30.4800
 30
0.0000
 42
1.0000
  0
VERTEX
  8
16
 10
33.6550
 20
30.4800
 30
0.0000
  0
VERTEX
  8
16
 10
33.6550
 20
18.2828
 30
0.0000
 42
1.0000
  0
SEQEND
  8
0
  0
POLYLINE
  8
16
 66
1
 10
0.0000
 20
0.0000
 30
0.0000
 40
0.0000
 41
0.0000
 70
1
  0
VERTEX
  8
16
 10
35.2888
 20
53.7890
 30
0.0000
  0
VERTEX
  8
16
 10
35.1110
 20
53.6112
 30
0.0000
 42
1.0000
  0
VERTEX
  8
16
 10
36.0090
 20
52.7132
 30
0.0000
  0
VERTEX
  8
16
 10
36.1868
 20
52.8910
 30
0.0000
 42
1.0000
  0
SEQEND
  8
0
  0
POLYLINE
  8
16
 66
1
 10
0.0000
 20
0.0000
 30
0.0000
 40
0.0000
 41
0.0000
 70
1
  0
VERTEX
  8
16
 10
34.9250
 20
53.1622
 30
0.0000
  0
VERTEX
  8
16
 10
34.9250
 20
51.4350
 30
0.0000
 42
1.0000
  0
VERTEX
  8
16
 10
36.1950
 20
51.4350
 30
0.0000
  0
VERTEX
  8
16
 10
36.1950
 20
53.1622
 30
0.0000
 42
1.0000
  0
SEQEND
  8
0
  0
POLYLINE
  8
16
 66
1
 10
0.0000
 20
0.0000
 30
0.0000
 40
0.0000
 41
0.0000
 70
1
  0
VERTEX
  8
16
 10
35.1110
 20
51.8840
 30
0.0000
  0
VERTEX
  8
16
 10
33.8410
 20
50.6140
 30
0.0000
 42
1.0000
  0
VERTEX
  8
16
 10
34.7390
 20
49.7160
 30
0.0000
  0
VERTEX
  8
16
 10
36.0090
 20
50.9860
 30
0.0000
 42
1.0000
  0
SEQEND
  8
0
  0
POLYLINE
  8
16
 66
1
 10
0.0000
 20
0.0000
 30
0.0000
 40
0.0000
 41
0.0000
 70
1
  0
VERTEX
  8
16
 10
14.1560
 20
50.6140
 30
0.0000
  0
VERTEX
  8
16
 10
10.9810
 20
47.4390
 30
0.0000
 42
1.0000
  0
VERTEX
  8
16
 10
11.8790
 20
46.5410
 30
0.0000
  0
VERTEX
  8
16
 10
15.0540
 20
49.7160
 30
0.0000
 42
1.0000
  0
SEQEND
  8
0
  0
POLYLINE
  8
16
 66
1
 10
0.0000
 20
0.0000
 30
0.0000
 40
0.0000
 41
0.0000
 70
1
  0
VERTEX
  8
16
 10
10.7950
 20
46.9900
 30
0.0000
  0
VERTEX
  8
16
 10
10.7950
 20
38.7350
 30
0.0000
 42
1.0000
  0
VERTEX
  8
16
 10
12.0650
 20
38.7350
 30
0.0000
  0
VERTEX
  8
16
 10
12.0650
 20
46.9900
 30
0.0000
 42
1.0000
  0
SEQEND
  8
0
  0
POLYLINE
  8
16
 66
1
 10
0.0000
 20
0.0000
 30
0.0000
 40
0.0000
 41
0.0000
 70
1
  0
VERTEX
  8
16
 10
10.9810
 20
38.2860
 30
0.0000
  0
VERTEX
  8
16
 10
13.5210
 20
35.7460
 30
0.0000
 42
1.0000
  0
VERTEX
  8
16
 10
14.4190
 20
36.6440
 30
0.0000
  0
VERTEX
  8
16
 10
11.8790
 20
39.1840
 30
0.0000
 42
1.0000
  0
SEQEND
  8
0
  0
POLYLINE
  8
16
 66
1
 10
0.0000
 20
0.0000
 30
0.0000
 40
0.0000
 41
0.0000
 70
1
  0
VERTEX
  8
16
 10
13.9700
 20
35.5600
 30
0.0000
  0
VERTEX
  8
16
 10
31.1150
 20
35.5600
 30
0.0000
 42
1.0000
  0
VERTEX
  8
16
 10
31.1150
 20
36.8300
 30
0.0000
  0
VERTEX
  8
16
 10
13.9700
 20
36.8300
 30
0.0000
 42
1.0000
  0
SEQEND
  8
0
  0
POLYLINE
  8
16
 66
1
 10
0.0000
 20
0.0000
 30
0.0000
 40
0.0000
 41
0.0000
 70
1
  0
VERTEX
  8
16
 10
33.6550
 20
33.0200
 30
0.0000
  0
VERTEX
  8
16
 10
33.6550
 20
30.4800
 30
0.0000
 42
1.0000
  0
VERTEX
  8
16
 10
34.9250
 20
30.4800
 30
0.0000
  0
VERTEX
  8
16
 10
34.9250
 20
33.0200
 30
0.0000
 42
1.0000
  0
SEQEND
  8
0
  0
POLYLINE
  8
16
 66
1
 10
0.0000
 20
0.0000
 30
0.0000
 40
0.0000
 41
0.0000
 70
1
  0
VERTEX
  8
16
 10
34.2900
 20
50.8000
 30
0.0000
  0
VERTEX
  8
16
 10
14.6050
 20
50.8000
 30
0.0000
 42
1.0000
  0
VERTEX
  8
16
 10
14.6050
 20
49.5300
 30
0.0000
  0
VERTEX
  8
16
 10
34.2900
 20
49.5300
 30
0.0000
 42
1.0000
  0
SEQEND
  8
0
  0
POLYLINE
  8
16
 66
1
 10
0.0000
 20
0.0000
 30
0.0000
 40
0.0000
 41
0.0000
 70
1
  0
VERTEX
  8
16
 10
30.6660
 20
35.7460
 30
0.0000
  0
VERTEX
  8
16
 10
33.8410
 20
32.5710
 30
0.0000
 42
1.0000
  0
VERTEX
  8
16
 10
34.7390
 20
33.4690
 30
0.0000
  0
VERTEX
  8
16
 10
31.5640
 20
36.6440
 30
0.0000
 42
1.0000
  0
SEQEND
  8
0
  0
POLYLINE
  8
16
 66
1
 10
0.0000
 20
0.0000
 30
0.0000
 40
0.0000
 41
0.0000
 70
1
  0
VERTEX
  8
16
 10
32.0212
 20
16.6960
 30
0.0000
  0
VERTEX
  8
16
 10
32.1990
 20
16.8738
 30
0.0000
 42
1.0000
  0
VERTEX
  8
16
 10
31.3010
 20
17.7718
 30
0.0000
  0
VERTEX
  8
16
 10
31.1232
 20
17.5940
 30
0.0000
 42
1.0000
  0
SEQEND
  8
0
  0
POLYLINE
  8
16
 66
1
 10
0.0000
 20
0.0000
 30
0.0000
 40
0.0000
 41
0.0000
 70
1
  0
VERTEX
  8
16
 10
32.3850
 20
17.3228
 30
0.0000
  0
VERTEX
  8
16
 10
32.3850
 20
30.4800
 30
0.0000
 42
1.0000
  0
VERTEX
  8
16
 10
31.1150
 20
30.4800
 30
0.0000
  0
VERTEX
  8
16
 10
31.1150
 20
17.3228
 30
0.0000
 42
1.0000
  0
SEQEND
  8
0
  0
POLYLINE
  8
16
 66
1
 10
0.0000
 20
0.0000
 30
0.0000
 40
0.0000
 41
0.0000
 70
1
  0
VERTEX
  8
16
 10
31.8822
 20
53.9750
 30
0.0000
  0
VERTEX
  8
16
 10
15.2400
 20
53.9750
 30
0.0000
 42
1.0000
  0
VERTEX
  8
16
 10
15.2400
 20
52.7050
 30
0.0000
  0
VERTEX
  8
16
 10
31.8822
 20
52.7050
 30
0.0000
 42
1.0000
  0
SEQEND
  8
0
  0
POLYLINE
  8
16
 66
1
 10
0.0000
 20
0.0000
 30
0.0000
 40
0.0000
 41
0.0000
 70
1
  0
VERTEX
  8
16
 10
14.7910
 20
53.7890
 30
0.0000
  0
VERTEX
  8
16
 10
9.0760
 20
48.0740
 30
0.0000
 42
1.0000
  0
VERTEX
  8
16
 10
9.9740
 20
47.1760
 30
0.0000
  0
VERTEX
  8
16
 10
15.6890
 20
52.8910
 30
0.0000
 42
1.0000
  0
SEQEND
  8
0
  0
POLYLINE
  8
16
 66
1
 10
0.0000
 20
0.0000
 30
0.0000
 40
0.0000
 41
0.0000
 70
1
  0
VERTEX
  8
16
 10
8.8900
 20
47.6250
 30
0.0000
  0
VERTEX
  8
16
 10
8.8900
 20
37.4650
 30
0.0000
 42
1.0000
  0
VERTEX
  8
16
 10
10.1600
 20
37.4650
 30
0.0000
  0
VERTEX
  8
16
 10
10.1600
 20
47.6250
 30
0.0000
 42
1.0000
  0
SEQEND
  8
0
  0
POLYLINE
  8
16
 66
1
 10
0.0000
 20
0.0000
 30
0.0000
 40
0.0000
 41
0.0000
 70
1
  0
VERTEX
  8
16
 10
9.0760
 20
37.0160
 30
0.0000
  0
VERTEX
  8
16
 10
12.2510
 20
33.8410
 30
0.0000
 42
1.0000
  0
VERTEX
  8
16
 10
13.1490
 20
34.7390
 30
0.0000
  0
VERTEX
  8
16
 10
9.9740
 20
37.9140
 30
0.0000
 42
1.0000
  0
SEQEND
  8
0
  0
POLYLINE
  8
16
 66
1
 10
0.0000
 20
0.0000
 30
0.0000
 40
0.0000
 41
0.0000
 70
1
  0
VERTEX
  8
16
 10
12.7000
 20
33.6550
 30
0.0000
  0
VERTEX
  8
16
 10
29.8450
 20
33.6550
 30
0.0000
 42
1.0000
  0
VERTEX
  8
16
 10
29.8450
 20
34.9250
 30
0.0000
  0
VERTEX
  8
16
 10
12.7000
 20
34.9250
 30
0.0000
 42
1.0000
  0
SEQEND
  8
0
  0
POLYLINE
  8
16
 66
1
 10
0.0000
 20
0.0000
 30
0.0000
 40
0.0000
 41
0.0000
 70
1
  0
VERTEX
  8
16
 10
29.3960
 20
33.8410
 30
0.0000
  0
VERTEX
  8
16
 10
31.3010
 20
31.9360
 30
0.0000
 42
1.0000
  0
VERTEX
  8
16
 10
32.1990
 20
32.8340
 30
0.0000
  0
VERTEX
  8
16
 10
30.2940
 20
34.7390
 30
0.0000
 42
1.0000
  0
SEQEND
  8
0
  0
POLYLINE
  8
16
 66
1
 10
0.0000
 20
0.0000
 30
0.0000
 40
0.0000
 41
0.0000
 70
1
  0
VERTEX
  8
16
 10
31.1150
 20
32.3850
 30
0.0000
  0
VERTEX
  8
16
 10
31.1150
 20
30.4800
 30
0.0000
 42
1.0000
  0
VERTEX
  8
16
 10
32.3850
 20
30.4800
 30
0.0000
  0
VERTEX
  8
16
 10
32.3850
 20
32.3850
 30
0.0000
 42
1.0000
  0
SEQEND
  8
0
  0
POLYLINE
  8
16
 66
1
 10
0.0000
 20
0.0000
 30
0.0000
 40
0.0000
 41
0.0000
 70
1
  0
VERTEX
  8
16
 10
57.7768
 20
14.4190
 30
0.0000
  0
VERTEX
  8
16
 10
49.9790
 20
22.2168
 30
0.0000
 42
1.0000
  0
VERTEX
  8
16
 10
49.0810
 20
21.3188
 30
0.0000
  0
VERTEX
  8
16
 10
56.8788
 20
13.5210
 30
0.0000
 42
1.0000
  0
SEQEND
  8
0
  0
POLYLINE
  8
16
 66
1
 10
0.0000
 20
0.0000
 30
0.0000
 40
0.0000
 41
0.0000
 70
1
  0
VERTEX
  8
16
 10
50.1650
 20
21.7678
 30
0.0000
  0
VERTEX
  8
16
 10
50.1650
 20
30.4800
 30
0.0000
 42
1.0000
  0
VERTEX
  8
16
 10
48.8950
 20
30.4800
 30
0.0000
  0
VERTEX
  8
16
 10
48.8950
 20
21.7678
 30
0.0000
 42
1.0000
  0
SEQEND
  8
0
  0
POLYLINE
  8
16
 66
1
 10
0.0000
 20
0.0000
 30
0.0000
 40
0.0000
 41
0.0000
 70
1
  0
VERTEX
  8
16
 10
49.9790
 20
30.0310
 30
0.0000
  0
VERTEX
  8
16
 10
51.2490
 20
31.3010
 30
0.0000
 42
1.0000
  0
VERTEX
  8
16
 10
50.3510
 20
32.1990
 30
0.0000
  0
VERTEX
  8
16
 10
49.0810
 20
30.9290
 30
0.0000
 42
1.0000
  0
SEQEND
  8
0
  0
POLYLINE
  8
16
 66
1
 10
0.0000
 20
0.0000
 30
0.0000
 40
0.0000
 41
0.0000
 70
1
  0
VERTEX
  8
16
 10
50.8000
 20
31.1150
 30
0.0000
  0
VERTEX
  8
16
 10
58.4200
 20
31.1150
 30
0.0000
 42
1.0000
  0
VERTEX
  8
16
 10
58.4200
 20
32.3850
 30
0.0000
  0
VERTEX
  8
16
 10
50.8000
 20
32.3850
 30
0.0000
 42
1.0000
  0
SEQEND
  8
0
  0
ENDSEC
  0
EOF
